<mxfile host="app.diagrams.net" modified="2023-09-09T18:42:58.374Z" agent="Mozilla/5.0 (Windows NT 10.0; Win64; x64) AppleWebKit/537.36 (KHTML, like Gecko) Chrome/116.0.0.0 Safari/537.36 Edg/116.0.1938.62" etag="HqO-iteZbcIalp7oy9BC" version="21.7.2" type="device">
  <diagram name="PÃ¡gina-1" id="XTGkZSd01CGkDQ3O8JkT">
    <mxGraphModel dx="1435" dy="837" grid="1" gridSize="10" guides="1" tooltips="1" connect="1" arrows="1" fold="1" page="1" pageScale="1" pageWidth="1100" pageHeight="850" math="0" shadow="0">
      <root>
        <mxCell id="0" />
        <mxCell id="1" parent="0" />
        <mxCell id="B9OUSxAQZ2tbWcy4EvlK-1" value="" style="rounded=0;whiteSpace=wrap;html=1;" vertex="1" parent="1">
          <mxGeometry x="300" y="80" width="610" height="640" as="geometry" />
        </mxCell>
        <mxCell id="B9OUSxAQZ2tbWcy4EvlK-7" value="" style="shape=image;verticalLabelPosition=bottom;labelBackgroundColor=default;verticalAlign=top;aspect=fixed;imageAspect=0;image=data:image/png,iVBORw0KGgoAAAANSUhEUgAAAmMAAADaCAYAAADqkkXpAAAAAXNSR0IArs4c6QAAAARnQU1BAACxjwv8YQUAAAAJcEhZcwAAEnQAABJ0Ad5mH3gAAExsSURBVHhe7d15lFzXfR/473uv9t7RaOwrQYAgCJDgBi4SJdO0dtmK42Ui2Zadie1xxkkUx5Zn4hnnJBmfkzknif/IOOOxYieTsWe0xJZkSdZiSZS4igsIkgBJ7ECj0ftWXXvVW+f3u1WNboANoBu9VAP4fsDHrvfq1faquu63773vXusvX78YgYiIiIiawm78JCIiIqImYBgjIiIiaiKGMSIiIqImYhgjIiIiaiKGMSIiIqImYhgjIiIiaiKGMSIiIqImYhgjIiIiaiKGMSIiIqImYhgjIiIiaiKGMSIiIqImYhgjIiIiaiKGMSIiIqImYhgjIiIiaiKGMSIiIqImYhgjIiIiaiKGMSIiIqImYhgjIiIiaiKGMSIiIqImYhgjIiIiaiKGMSIiIqImYhgjIroVWZYs/IonuhnwN5WI6FaiAUyCWFjMws8OA1Ekq/yqJ1rNrL98/WLUuExEtEQsWaa/WmZfpmUlocuVAJZ761lUxy4gCkOk1m5F94MfgtPWLW9D2NiRiFYThjEiWjraNBYE8AsTiMqTJoPZrd1w2tc2dqBlocc9ipA/+yYKJ36EsFYwwUxpIItLEOt+z88i0dph9iOi1YVhjIiWhGU78Es5uKdeRG3svIQy1xT8ViKN5I4HkNr1sCaDxt601LQ2LHfqMCxNwFoZeYW2Ox9E5/7314MbEa0q7EhARIumQSwoTKB0+KuoDryNyK9KDgslFkQI3TIqJ59D5fwR3bFxC1oqeuwL544hf/o1yVlzBzHNZ6Wh8/BrlcYGIlpN+M1IRIsjAcvPDqH4+jcQFMflW2Xur5XaiWfg9r/DQLaU5FjWJvqRP/6CBK6gsXEO2opZnoKXHYblxBobiWi14LciES2ChaBcQOnodxAUJIhdrQlMtkdRhOqZlxGUpnRDfTvdOD3WvovJ176NsFa6+rFvCAMf5dE+U5NGRKsLwxgRLYp75kUExYnrhgG9Pihn4fYekUDAr57Fs5DvO45adlQvzos33odIAhwRrS78RiSiGyOBypsagjty5vpBbJrs5g6dkvCWvWpzJs1PWC2h3HsUtjO/42jZGoZzCMt5ebt47IlWE/5GEtENseSfe+4wQnchncIt06RWPf2iBAI2l90orVmsTQ7Cz4/pSmPr9cix9ypwNQjPNzwT0YpgGCOihdNO+1MjjVqx+XyNNAr/yJL/LJT734Y3MSA3ZSC7IRJkq6O9iAK/sWF+wgCo5CYba0S0WjCMEdENcUfO1kv3a9SyWI3r3JqLyakchkYG0N9/ERd6z2Lg8HcWHCaoLgo8VMb6G2vXIMff9M/TYUbMtEjavFlsXElEqwXDGBEtnISocKJPCvurf4VoEPN9D8NDF9F74QxGhwcwlZ1EsZhHzfUwdu5NVKa0mY1NZguh/b2C3BiC4uQ1j53tOAiCACPDQ+jr68OAhOCp3BQiDWMchZ9oVWEYI6KFkQCgZ+QFWqhftRO+hVK5grNnz2AymzWhQAeBnc0rF5CXQKZ9z2gB5JhXJgflPbh6raIG4VKxiAu95zE+PoZSqYxCoYiBgQH0nz/deC943IlWC4YxIlqwwK0gDLzG2uU0CLhuDUND/RLCfFOTMxcd92r85KvmJy1AFKE8cqGx8m4abqeyU7hwoQ/VSlXWZo6/LUHO1/HgeMyJVhWGMSJaOK9a7y82Bw1j46ODqFWvfZal9mXKjZxH6eJx2LF4Yytdk9ZKRiGC/NhVW4iLpQJGRoYRyfsz3WdvmgZjzw/NdawYI1o9GMaIaMEiE8beXbuihX+xUESuUHhXEJiL1or1vvY0okCDHdOBHDTzwy8XUJsag5cfR1Ap1oOVOfNUwphbQeCW5eK7v75NHzEJYvrzagId9PWKJmMiai6GMSJaOmGEiYmRefcP14CRv3AM5eHzjbBxG5MgFpRyyL72bYw89yWMP/d5jD73RYw8+0WMv/Q15E+/iqA8JUnNkzA8xyj6ctBHh7VG8joj7Mt+4TXCGhGtPIYxIlowK5aU/707PLmeh0q1Oq9aMaX7haGPybefu+1ra7TGa+LVb6HY9zZCCV2hhK7QrZoAVh05h9zRpzHyzBeRPftG4xYz9DhO5bLITuUbW4joZsIwRkQLp7VY7wpcloQxX8LVwkKVLfc12ncSbuH2HYzUcmKYeudF1CavPnZYJMdXpzMqnfxRY8sM3/cxlc3OOwQT0erCMEZECxdL1APZLBoDam5NQsPCVXLjyEkgux2bKjWIlQbPoth7zDQhXpOGrSuPu22jXCqiVpvfBOB6RiUnaidaXfgbSUSXsSRoaSgyS+PylZxkBrYGstkkR3g6T+V8O4zNouOWjZ561dSS3VYkXEVuFVNHvgn4tXrYugH5fEEO+zyPux1nGCNaZfgbSUR1OrJ7YRzFY99H4UdfROHFL6D45nfgjZ5H6HnmekMKfcuJw0m1ArObJOXqG8hhhmVbKPafQGVicM7wd6vS6JXvPQa/pAPo3sDrlvDm1moolsrzOvYRQiSTMXn/JEjf4HtFREuPYYyI6oX68FkUX/0K3POH4U1chDfZD/fCGygd+TpKr30VtYvvmNoXM4irE4Pd2n1Z+tLrwvBGS3h5/EoRQ68/fVuFMb9aQrnvHQlHV3wVy/sxu/bqan3BdLuOtB/4cw/Ae6UwiBDLdDSCH9MY0WrBMEZEZiyrysnnEer4VRoCZi16tqM/NYjysW9LKPua7FMx/Zzsnp1yy8sL9MUU7zrw6+CbT8OdGpaUcet/NWno1ADs50cbW2ZosJ2cGMO58xfQ23sBY6Oj8Fz3soCmojBEPp+7alh7F3kv4y2d8uCNdSJaFW79bzwiuiYNBcHoOUQ6htW1SIHvjZ5F6Udfgj92AYn2HliJtCaHxg6LL+P9WhnD77x6G2SF+oycWisW+rPG/JJjrAO2DvX3YXhoGLVKCZVyCaMSxs6dO4PhwQH4nmfCly6h76Ms1y9EsrXt9uubR7TKMYwR3eY0SrnjFyRTzWMgUCnEvdI4Cq//DdzJAcS6tmj1jLlKw4FtLy5G6UkBk6dekce4tcfLshwH1eGzKI/1z1QCyvGrVMq42NeLqVxBN9S3CxO85DBPTmbR399vAphuq9aqCBcyPps8WEvXusYKEa0WDGNEtzvfQ5B7d1PZVUmBHrkllI9+G2F1VsdzyQSSDxZFA0ZlYgDlkVt7RP4o8DF14mW9IGv1g+bL+zA8OCiBrGaOw9VUKhX0nu9FLpdFqVyWW8//ONkxBx3rJUAT0arCMEZ0G9PO+GElD0i4WrgIQWEmxGmAcJykXqpvuEG+BJWxEy9JGLsVvp7kWJhgNeuYyDF3s8OojV+sB9lG8BoaGEC1WjWX50ObMbXz/nzpmZSpTAeSHT2mrxkRrR4MY0S3O981HcZvyKwanEj+JRKObFpMN/56bBk//xZqk4MztW43IT3JQUfNh84jGfqmpk+3qcrgGfNTaYjVDvpFHd5iAUHW9wNUKvMPbzpvaMva9XBaum78/SaiZcEwRnS7M4O3Lr5w1nuI6ZyVCwgUc5Jw4pVy6HvthzdlR3OtbdTgVTh9GKM/+HMMfvfPMPz0n2Pkpa+jMnzOzEFZHb1gXqcGMR0nbGJiQg7gIo/bdWgA695yB+yYBkKGMaLVhGGM6HZn6Wj79RqbxYo5jgSoxX+taA3S2LEfojLaZ4LNzUPCVXEKo89+EZNH/ha1yQEE1RK8/CiqfW9h7LkvYPgH/x+8wrjZWwNSdnJyfidPLJIjIax9ww6EwfI/FhEtDMMY0W1Mw4CVTMMyNVrXprU4ZtF/05cb63WRFPgaxhYfnvR+/VoJQ8eek7u9ifo3hT4K7zyPqp6AIMH0UpDUwCvr+tMrTiAK6oO0av+4UlmbJ5f5q1je50S6FZn12yWMzW+AWCJaOQxjRLc1CWOxFKyWrsb63LS2q1quYHiwD4MD5zHYfx4TY+OoVHRy6shcr/8cx0Zcp0laAjoIbPbUq/CmxhpbVjdLnm9tvB/lodN6wBpb302DpvzfXNbJvV3XN5fnSwN0GIZIpZJIJhNy9OdX09XWsxGp9stnTSCi1YFhjOg2px3uY50bGmvvZls2xicmcL5PAlg2i2wub5bh0QH09p7Cud5eDA0Po1AuSTlvoT0dN2FhKVSKWYyefBW2E29sWaUkYEVuDRNvv4BwnlMT2TrWWLk872ZDDWGZTBp33rkTP/beQ3jyx57Ak0++D9u3bjPXXZMt78vGnSYwEtHqwzBGdJuLohCxro3Qyb+vpLU4rudjdHQEkZ4RqJ3TZy0aAqqVIiYnRtHf34f+gT54vu63NJ3R9f7Hj7+EwExUvrwd3BdDj0Xx3BvwJwYW9Nor1bL8fz41VRG2bFqPhx+6D/vuvhMdXZ1y2xoGBwbNWZjXfUy5umPrXbg1hgshuvXwN5PodieBx25fDyvZ0thwOa29CfyaXLp2ga99kYqFHMbGR5csjOn95Ed7MfL6d+GYsz5XIXmOfmkK+RMvSKC9RvOkNuXqCQ6NRWvE6s281z5WGkh37tiChw/dj7aWFhQKRbxy+Ch++MNn8fobxzA5mWvseXXJTCvWbNo+v9xHRCuOYYyI4KTbkNxwlyaqxpYZnq+BYf6WejgKrbHrfeEr9amDrNX5lVUZOI3AnaN5shFKa9UqRocG0Xv+DC6cP4exkREzpEXQGOMtFnNMH7C0LJl0yqxrRtNay+7uLuzefScq5SrePnEOz79wGMPDI3rncPSkgOvQkLz+rkOItXeb+yOi1cf6y9cv8m8lotudhJyglEXxuf8HoQayRojQmqnx0SEMj44sechaCA0UGw9+ELue+uSl57ZahG4NYy/8Jdyp4caWBnme2nducmIcU9ksPE876uvXbf0sVD3ZQUPX5s0b0NO9FolEHE6sHjZdCXa5XAHnL/Rh965dWLduDQ6/dhSTk9eZzH1OIR7/ld9D29a7TVMzEa0+rBkjIskIIWJt3YhvOWAuz+bE0o1LzaMd+CdOv4ri6MXGltVBh67wsoPwclpTdTkNYkODAxgZHmkEMVUPkuZsyHQajz/+MA7svxvrN6xFR0eb3F8KNdfVF4xNGzfhqSffi80b1+HsuQsYH580t10IfZw1W+9C2/Z9DGJEqxhrxoiozrIQVUsovPRFBOWcWdcanGK+iN6+M02tGVPanLdh9/248xOfkWChzanN/uqS4yPHZPi5L6E2fNb0CatvluMoIWh4aAi5XM487yu1ZNJ47D2PIZN0UClXcKF/UPYfRblSMdMcyV0gFosjLYGtp6cLY2PjyOdvZP7QEAc+9vex+aGfQLjA5mYiWjmsGSOiOu3In25DYvv9EgYaXw2SIxLJuBlHrNk0GI6deQPDb70AZyWHaNBQ6sRgxxLmp4Yws1mOiQ7u6o70yuVZTadhhJFhDWJTcwYxtXbtGrSkY6hWazj21nGcOnUOuXzBBDGlN/M8barM4dy5PhQKetblQkXIdK3Dml33znu4DSJqDoYxotvY9BAV2iwmicJsS+84iPiaLdrGZdYT8TjiyaUZyHWxgijE2e/8J1QnB02t1HLTxwgrBZTOHMb40R+i2vc2Qrcsh6s+v2Px/FH5qc1/M2FsMjuBycmsCVRX4zQmDB8Zz2N0PGsua9i8km7TQHe1UHdtFtbu2ItEa7tcvpHbE9FKYTMl0e3GFPqW6bAf5McR5kfgl/NmAmvTX0wCSFQtItRpe2RXrRUb7O/D5NRkPbg1kQkmgY+N9z1V78zfCDVLT5sgbZT63kH2rWcQFBvDR9gWYqkWZDbtRnLtVmTf/B4Ct2qu0uBULhXR399/qYbrStOhSmvG3vP4Qzh58hxOnDqjj2a2LyUdPuPhT/0zdGp/MZ5FSbSqMYwRXYWpeWnUVpg+SjdUO7HKaJgKPFTPvora4HGgWjJnKk6/zss0tukI/PlCDhcvXjDrzRMhJUFow4ZNSLWtQefBD8JZv8uEs6Wm77073oeR57+MSMdYu+z46OfAMtM1TTf/aRDTccN6e8+hWp3pmzUdvuLxGBLJBJKJpNnmujU8cPBe5IoVvHXsrUv7LRV9T7fe/z7c8/F/cMVzJ6LViGGM6Eq2LQV8hKA0JcuEFLpJOB3r4MSlINWC+CYOZfrUK2//ALXeI9pDvLH12rTWJowkaJw/g2rt+oO/LpfWtk7ccec+JJNJc5agH0sj89AnTF+upa75iSRkjT7/JbgTA1rF1Nh6DRJ4Bi72IZfLm2DW2CTPuRU7tm7F2p4utLa2mCOnn6EwCFGqai1fBS+/8oYEuHrt2vXo+6f3q6830snHEZrH83zb3HciHsrlCD2bt+DQL/4uguSa+o3gyaPW6990qbt5P8dEtxqGMaJpEsKCUh6lvrdRvngcfimHWrmAqXwerp3C+l0HsP7Ae9C6dqMpoG+6ph8ptP2JQZSOfA2hP7/Cf5oFG0ODF5HN1fs3rSStNdKhLfbtvx+ZzEzfNQ1kUedmpO5+v3bCaoSOJSDHqXj2CLJv/lBWZt5jDT1BEFyKMLasaxOuruemshgaGjStvEr3veOOrdi1YztS6RQmJ7KYyE6hkC9IWKo3YSa1L14qgfGxSdN5/0r6cvzAQtwJJYDG0JoJ0NnmoKszQlubhe4OW+7bR0tLHA58JBPyuPJ8VCzRhVjnHnn2MdSidnhRClW7HZWgA1WrA67VCc/KIICeCKHxLJD/syggahaGMSJh2TEEhQmMvfJ1uNlB3YJKuYyhkWHTpGRFWlRZSLS0YdPeB7Dt0Y8g07MFgVdbuhCwzMzZf2dfQ/nEs/XydwG0TqVQmEL/wMUVf7kaeju71mPP3v2NLTN0Hszk1v1wdjzQ2LJ4oedi9NkvwMuNyguXVy6LBkI9OzI3NSWBrJ64kpJ+ujo7JPik0H/xwqzmyQi779yJu/bsMmvHT57Bxb4BE8KmmyOnf2qY0/vXYDnND01dJDrbk9i9w8LubQE2bQzR1gG0pOUzmIzgWLJoeLrK+xjU0nJH9Ro9ibLmp4lbct+BlZIg1oqS3Yasux1TiQPIRZskpLXLHr4JdkS0shjGiCzbdGQffvq/InArpr+Q1nr0DQygVCyZwnI2TwJYOpUxYzftfPTDiGXapcCTX6NVHsp0WqHqyRdQPv2iCRkLFQQR+vq0T1SlsWVlaBhbt3ELduy4q7Hlcq6VQPKuJxDr2iBri3sPdOiK/PEfIXv0h3JZQowGJQlRF/v7USzkTXiaoY9lIRZPIAzcxsmnEdKZNN73+CEkEgmMjo3j5VeOyG6zbzc3yUlIxyJs39yKRw/6uG+vh3SnXCGfK202X8hLC4M4Qg1k1+FAnrf8v2qtx4C/GxPOPRi39sK3kvLKWFtGtFKcn/+Nf/YvG5eJbktBpYDxV74OrzBhgpieMVgqVTAxMf6uIKZ0WAI/DJC9cBJjp4+Y2ydbO5HItJnbLjYQLBd9LVr754/P3RFf62N0n8sXrbmpX6fT91haQ5SfMttXjgYRC93dPRKGZvpvhWFkljVdrdi2NgO3ZT1cPzLP94bIawpKOUwc/hZ0tHp9/XpnwyPDZgL0d7/m+gPp9FHTOVx/ZtJp7Lxjq3nao+OTGBube+R8eermk5JIxrBtnYdH9oX46CMl/PgjFdyxO4KTkPvXEDZTaTZv+jyi4PoTq2v9GmAjFhXQbV/AZhzB2ugtdNmDsEIHnt0CD6nGK9VnS0TLgWGMbmva+btw8iWUL759qbDV8TsnpibNyOhXCx1aUGsw8ColTPadwsjJ12DVisj07DBNmfUR4lcZLdfdCrzh0/WVWUzwkBK8VCyjUMyjXMyhXC7B80IEng/bkTBmx5BMZTCVL5iz9cxtlpmGikSqDalkEq1t7YjH6wFDQ5i+hv3334MDD+7Dxg0d6Er4GCzpSRY3Ln/iRdRGz0suk+ApS6VUwujIyKWwdTXa7Gjm9JTY4gc+enq6kUmlTTPqwMCQ2T7Nl3ClT78lbeP+PR4+dqiE995Xw+4tLro6baTWtsgdLi7sWpY8Hz/ZWJsH+ZzXmzMtpK0COqI+rIuOYQOOIQhtVO0e+EjLtavwc010C2AzJd3WdFiEwW9/DmElryVYfZssZ8+eM5215xs4tCnN9z20tbdj53s+gXUHnkA8JYUqQlNQrxZBMYviq19GKMFxNl9C1+DIEAq58caWy2ltYEqCWEs6A0+OSy638HkSF0qnA9qxYzc61miN2OXhRPtY3XXPHtz78L5L8z7qHudyGRyfSskbssDqJHmf/cIkRp79ohyb+rRDGsYu9p1HPle85ufAcRysWdOJ9et60JpJSdAKJbSm0NXVgWotwssvv4LJbA6JGJBJRti8MYNDd45jz/YQ6aSEXXmq5iMij5HqyiCWWprZBUIvaZbFsuFhItqBC/ZTGLAOmtDG5kuipcUwRrct7UOVP/kSske+I5cbzV9SIHpegPPnz9bXZ9VozIcWxJGElc4NW7Bh/+PYcPchJLvWm9J2NZx9GQUeSq9+FV52wLzWaflCEQMDFxqp4Gr0NWgz4OJqbeYjlUxh1+79yLS2NbbMMB3o5Vg++Nh92L57h3lO0/zAxumpNM7lE7Ct+X+1afDKn3gJuXeeqx8CDWeei3Nnz17qsD+X7jXt2L17lwSvTtOhv1zxkM1qrWpNPkcldHel0J6pStA7g63rJYh1ldHeZmlFlATKxp00xJJx+ay0mOuWQhTEENQyjbXF0RMKNISNRntw0XkCw7hH1mOsKSNaImympNuTFLba/2nyyN8iqM500tefWghPSIFqWzP9k+ZLb6+1OLVSARMXjmPk5OtANY/Muh1IZFqb3nypHdTDcg7+RB/kiTa2AjXXRbFYuE4Yq/cjW3421m3cju61PY31GVpbmUna6N68Hp1rutHZ1XFZGLPtCN0pHzXfQd6t93ebj0jecx3KQj8LeiN9neVSCVNTjZH359DZ2YEHH7gXHW16FqKFodEsTrxzDG5lEJs7B3H/9hHcs3UYuzeOYdemGtZ1+RLY6nVKcx3meHsLHHltS0WbKqNIPsOLbPKsqx/IFmsc66O3scYawBR2oIpWebea/0cG0c2ONWN0W9KO+tWBk6ZZypo1+KkWwtVKBWd7zyPmLL65yDRfSkHf3tGBHdp8uf+9iKe1+bJey7TiLBtedgjFF/5fbV9rbJQwVnPR13feNLU2m877eOfu/ejo7GpsqdPJuLfcsQn3PXgQ8Xi9aim4yjHUoUheGWnFeEVe4+xApunM3GTmdlpDWjx3xATzafo5GByUwJGdamyZuZnehV7/4ME7sX3LOgkjFbS3jqM2dR471pYknIX12i3Z9xqVapfR+2vZ2NFYWzqhn0DophprS0ebLitRD962fg7D9gGJY/KaZx1TIloY1ozR7UUKPa0dqo1dQPYNnVewZgrXaSaMSTDJ5XOmg/5i6f1pfyvX8zB65k1kz72JoFZGqq0L8YzWqKiVLcScZAbBZD/C8kw/Oce2UZIQ6snxaDZbQlf32nVIpmaGZtCmwvUbu3H/IQliMRuhhLBrHTU9CaMjGSBfi6Gio9NrLWAUmGOv00GZZml5X+QAAF4NE4e/ba7T98uQ+89KEKtVXfM4cdm1tSWB9Ws87N3q4eCeAIf25rF9zXlsbjuFnswINqxxkUpE9bMkG8t8JdtScFLzmxFhISxL0mBoy3NZ/Gd5Nj0LM2ZVsME6hpRVwBS2STzT4TAW8KKJ6BLWjNFtwxTIUlzkzh1F4a0fNJon69dN08J4KjeFgcHBJakZu1y9Nkz/pVo7sXn/o9h26EOmT9lKDh6rYbRy8R1U3vwbPSj1bfK6JyazGBrsM82szaRvyabNO7Bpyw59Ymab60oAOrQfe+65s3Em5fXpLSueg5fGOpEfG0X+xPNws8PmNccyHYhv3I3OnQeQ7z+FqVe+AStWDyyRH8gxsjA6NoJNXZPY2VPBpm4fXZ0OkvHABC5YOgTw0smsa4ctIXPJSSq14nH4hZS8rsa2JaXvhYWstRNvWL+MIrrYbEl0AxjG6JanHc61uVAL4txbz6IydNoEkjnJvqOjY5iYmDDjai2X6bMv0+kWbH/sI9h87xOIt6+RYs0y162E/LN/bube1MCjYSwIfJw+fdKcqdhssXga++7Zh2Sq3axrGLvvYQ1juxd0fPQdrLoOvvLfvo7sUD/s6abZKICORp9a0w0rsGFXB9DSEqInY6Gz4wJ62nx0pAuIx+pfj9rVb7m+KB0JTOn1HZpplo6GsKQDK10fCiSqWfDG5bUv04vQDv7ZcAsOO7+KqqWfYxYrRAvBMEa3Jg0YtmPG1aqOXazXBA2fQ1Atmu1zkiAWBgEGBgZRqZZ1Q337MtKzL7XvU6arB5vuegA9+x9H27ptZhJvHXZjuegxKJ96GbUzL0qxWf8K0EA2PjaKkdFhc7lZetZvQU/PBqTSGTNshNJmyrXrOvHwE4dk+/UHM53Nlvd1qH8Yz3//GZQKE0jHq2hvAdqSRbSlSuhoKaE1LYEoVjbzQCo9IitRUamP4aSSyKxNL01QkrfNSsVlkT82Zr+Hct9+QT7fsizJ48xBA9lUtAnv4BOYcPaZdSKaH4YxuuVoh+zIqyLfdwKV86/DmxquBxtTNs0RMqTQ0umPdKyt4dEhFArXHldqOdSbL0PEEhms33Mf7njsI2jZuEvCob9MZ2DWx9UqHb58zDGtFes9f9qcXTnnsVpGWuO1ccud2LR5C5wrArOOJabNp7v33Yl7H9i74GJe389ybhSFU59D2u9FPOHAseTYynGffpXN+iJ00mmku5Ny8BsbbpAVkz9AWuV+JHzO9dZp8PNyckXxKn+MLIkIhWgtjtj/PfLWFjZZEs0Twxjd/KaDk4QWv5RDuf8kiuffkLDRaIKboyZMbxFJoWVFAVwp6AvFEiYnJ03T4VJ03L9RWmAGvmua07YceAxbHnwKreu3w45JwNS4oDssFbmv8pvfRm3wBORFm00aWsbGxjE+LgF2KR/rOvSxMukU9h14ZKYpsUED4ubNXbhj3z6s6W67ehPzdWhzdVgbRe3MH8OunJ/53DRZQgJUov3680heixWTz3JLQts8G1uuzp2S113SGrLlef3TTZavxv4xqsgwkBHNA8MY3bQ0ZGle8IuTqI70ojJyHu7YBQQ1ncZId3h3YaM1YHomnvZBKlfKqJRLKFdr8D0d0qHed2o10HCitWKJlnZ0bd6JDfvfg+4de6XQ7jZNqQseYX4uEk58HebipS/Ug1fjtfsSTi/0nZNjpLVjK0Mfv7W1HXvvuf+yMKyd9detX4PHn3rUhLRF92ezdJy1i/D7Pw/k3pQPxNKfwbhQiw1jpkasJTmvIGbIWx0UdJ5SOc7L9O2vgUwnHH/d+rQEMgnQDGRE18ShLejmI4W1JYWoO9GPqXdeRO7o91AZOAm/MA4dYV7Ho7oUxOSnNm+ZZkidxqdQMB30J7OTKBQLEji0GVBHlV89QUzpc9FQYkbMnxzByKnXkT19RJ5riPY1G+Ckdf7LxfYpixBr6TTjoAXZfnnQemHuxGJwJLTk8tkVOyb6OJGl0wqtR+yKcd+27NyOdZt6Fh/EjBBWvB1218MIyr2wqkOXXnezOAk53skbO3O33jSZmn8QU/KW2gldJPCXl+u1W8hgQn7vchjHvY1tRHQ1DGN0k9DmRtv0BasMnMbka99G7u1nJJANSqaY1adKmx4bP7X2yPd9FEsVjI6PSggbRSGfN9vM/dX3XOU0JNZfU7VcxPDxw7K8hqiaQ6KjB7FEul6TtIiXYndshDfwtgl+8mDmrhKpDMpVF56rtYwrc5wC30Ok83t2rjEBWmnNWCxuY9vOzfXauyWixzTW/R75iJQRlXQaKPkMrdDrvNINhzF5vrb2EbuRs37lpUrehp2M5JjLStB47ZY8Dychq2n5FYrLQ8jvyqXjvvDj0xqMooh1pv8Yz7AkujqGMVr1TF8fCQWl828id/QHKJ59HUFxUkoSHcxzuhCRy1I4BVJ4VyoV5PMFZKcmMTk5hVwuh5oOZiqFigaXlQoXS02ftxOLw6uWMXHhJEZPHkFppFe2A+m2TilD07rTrMJzPiI48YQUyFo7JsG2QQ9rOpVCsZgzgWgl6OsrV0omLCcTCcQT9UmuK6WSPJ8E1qztnHm/l4jVug9Wols+T2dhhRXzOVppNxrG9IxJS2cfX8Qh0UDmpCLzM4jtxYXsXjz3po1nXndwZqgDbmwj1q3rgh3lFvi5qrOtEB3WMMaiu+AFDiIJembmBw3bcncMaER17DNGq5rWhvkSCCZe/hpqExcbBc906aNNedobRacwqkoAy0l4KMLz6qOma+F+c9R+3RitKdIzMDVAtHZ0Y+sD78fGA+9FsmsDAj0G827GlGNYLaLw6pcRliTkNujxGxkZNGOurSQN3xs36aCv28xzUDq0xdZt3dh9YB86upZ62iCJBLVRBBf/C8LsMVMztJJMn7FOCdILbIW121PAEgwUa0nQ9WMfx+f+pA9/8l/+AsOjI/AkEOusDKlUEk++5xD+1e88iY2pl/RINW61MOPHEiiMbkW5dQ3GN+yA27kdfms3omQLAj0hQwK/Y8Z+W44zh4lWP4YxWrV00IG2eIj+576CXN+Jxll2UjhLAR0FgYQuD4VyGYV8AbVa1YzZpX3DtDC/3Wh/Kj0Ls72jE117HsKW/Y8i3bMNcZ1SSI7Htc7E1MDj50ZRPf4s3EkNvDMB1vcCXLx4DlU5vubYLzMd3mLbtp1Yt3HHpaZKnRw8lU7hzrt2Y/uuDUjI5aXnwIpKqA1+C9b40/L50nHmVsYNDW0Rkz9EFnkGZp2NUu0x/MG/P4U/+uP/2tj2bu9/4jH80R98FFtTLyMIF/b7pfPtTx7rgvu2foaEaRKW4x2Lo9C2Brk16xG0r0epYyu8li74yQwiO4HAjpmP4nQg124HRLcqhjFatTSMbWnxMf7y13Dq+KnGNqBYzCOXz5t5A8PGX9L17+vlDwurW2SaFLV2IZ7KoHXtJqzdvgddO+9Bx8adcDKduoeUhdM1ZhJcJfC4va+heOYw4JYa22dozWKplEfvBW0OXd7jqzV9LS1t2LvvoGmOnd7W3dONg4cOoK2z9dK25VEPGVH5DPyR7yPKvSZpVEKZhntNFMvESSYkjGUaa/NjZ+T4pG6gn9kVIqsHX/nGLvyT3/135nfp5/7ux+DIa/3iX30T+WKusVfdb/0Pn8Tv/0YXoqoE9gX8rk2HMe+dmrzYWGNrw/Rn0fR7lM9aug1uIomwtQfVdIcJZ/k16xCmWuCmesznlehWxD5jtGrp133Rd7Brx0Zs6mlFpVTDyZPHMToyCk/ncpQ9tJmyHhJu9yCm6sfCnIUZhqgWspi4eBqDb72M0XdeQiU7glQqbaZdiiUz9SCWH0Xp8F8DoQ7t8W4axnTCbrlXlMozg8MuDx3GYjM6urob60AincBD7zko29qXMYRN0/uXPwHicny6HoDd+YAcIzmW5YF6KFumYTA0h8Qz9f5x82XOoFyCj3w1uAv/538+hcOHj+DTn/o0/s2/+9/wgY9+FENn38GRYycae9W9fuwUfvFXPoGOjIQxHaNsnhVVdipCyS8i6tfAecWT1nClSyPoJ3wX6WoJmcI42sb70D54HK1Hn0Fn/wlUtuxFkGmXx2b9Ad16GMZo1Rt3JQx0bcGOu/fhnn13YfPWrUim00joxM463EHkm2JUxw/TZi79rq7/1PXZi26/fJtsuWKZr3rhscyVRYtigplVP7GhVilJMDuD/jefx+jxV5EfOoeglEeow4Fo0+QcNQ6WHA6dFio7OYlSaQqev9z9eSJ0da5Fa/tMn7DW1jbcuXeXCd0rzYp1wO54AFjzOJDeaI4HAm1qq3/m6h+BxT8vK4wQX0i4kv2s9OJrxdRU9iD+4vOvoLevF3v33IUnn3q/vDYLf/utF/DmW0cbe9Vpc/GHn3wYu+7Jws54cNIRnNbIhC07LR8hWZ+9xNpDOO1yuSVEUn5XS8ckcNZ/CS8toYQvrcnVJZTPWiR/ZEVuDdXJUfjVCkrJdpQOPoWBR38Obvs680cG0a2IzZR0U9AmS6VT7qWcEHE7QtrPA+UpuMUsasUplHKylAomQNRKPtyKXvbkC9yD70dwPfkZhKZv2XRTnQa42TSgeTrEwqzvfAuyruOIaxmsZYj+a5xhaJr9ps82NPelyxWlqglE8sMkt9mXV56+Pm2O0tMe9u+OY+e2Neib3CbH8/KgZcu/ickRjI2PybGbbgpe3uesAXr9+q3YfseexhbJQK1pvPcnHkN6WfqJzZfW3MgSuAhqo0DxBPzCKfl5DJYrn0Gzy+JqzVo2dMhDzPP4ym5218KaNa9mPP8EfvnX/wbPvvA8WjIt+Omf+kl4rotvfOs7KEmAv9Ln/+yz+MmPnpEsqjXT8xeULAz8x7gErEazb4Nv+iLOsOT3Mki2oLB5N4o7H0Rhx/3w2zrN75bFIEa3MIYxuimFGhe0UJJFi7CYhLOkLG0xDxknQCbhIG4FsleElKnSkCWSv7rlh23GJat/7PX/s7/jQwlulXJFftavr9PL9fPI3Erl0ha9s2I5D08Kad2/WpSwVw1RK0/K9sAM0VCSy+ViBV7NRb5YQk1+6hLIbfQkhDoLlqMD2WpNltOoBdJl6U3XCP7qz6ax74A2PVr4yt/ulsedCWPaNOkHHk6fPmn2XUmWncbBBx5GTGs9zQbg7gP7sO/gnWZ+yuarvy8R5Pl544iyL6I2+iIc7UelZ6/Gbiw0prtb5j+8hTyFpQpjZe8gPvPbx/CFr3zdrGvgvtZ7/uJ3/wD37n9twWFMDf5pDcVznjz5OWphdew/CeOFO+7F8IM/hermvbJV/nAxfxWt7GeQqBkYxuiWMV17diWt0InL4kgo0xo1lY5FiFn1FJaSyyrj6CAZQEL2cRztf6XFgZSvctkEv8YjWHI/Ji8JvU/t9KMBT/sXXVl55Gvzi+QcbV7x3bIEigjlchHlqixTRRTzFUxNZZHL5WWZQqlYkKUEt1qF60ug82om6E0XkPXaqXrfsBsRBBH27QJ+89daUJbyVO/llec34+x4SsrIxmPIvyDwcerMKXneMyFtJWjt2KYtO7Fp83Z5PjrdlbxP8rweeO8j2LxlndZDNvZcDeTo6SCpOiRD+TTcidfglI4hrIzKNgkdGiRm1QJdS7y1BckOva/GhmuRh12qMBZiI/70Lzbi9//1H5rpwa7lgQMP4rtfeRKJ5DuNLQsQhJh4zsXk9+vvsaGfaVn8dAaVjXdh/OCPSQi7D6H2+F/07BJENxeGMbotzBnUpmsAZgUbrf+qB61GADO1avXhnEwY022y7jSCiwa3WCPk6WWVjOnIA6FZ19snGuWx7mNu30hy9VoIKXdMoQQzPlro65yZVVRLFeSLReQmJzA5Po7JMVkmdBDbLIoS2AKtSZCC3kz1NEdNw9VoGHv43hh+5VPJehiTp1LMJvC957egKrlr+lBoDd3g0KA83ohsm//9LwWdDmnt2nVYv2EL4smMGVfs/scPoLOzU45X/RivPlqTJ2E+yCIoDcLPHUdUeKM+3VLoygG9dq2XzjKQ6mlvrF2f3ZHSD2FjbTESGBx/Ar/1u9/BN7/7t41t77Z542b8X3/4a/ix9x2X11NobJ2/UP7ocIdsDH05hFfSD738kdK1HhNb9qJw93tQXbsLUUz7lOlfLqv1PSZaPgxjRIugIU8DnPYpm2YaNOW/6QzjSCGdkLLakaDTmtD+bloLFyAVC9HihKZGTvPZdBAyAc1ckEU2as1cKNdpDZlbrmJsbBh9Z0/hxNvn0XfhPPI5HSU/MMNBOI6OzdS4oznofaztSuF/+oxj7l5p7d7Rdzrx1qkeuW2j1kKEfogLfadRremE4Ve/z6WmgWt60vB4IoHHnjyENWu7GtfeJKyEHMAa/OIFBBPfByZfhuWXJHXpWZNzH8uF9Bsz0yDph2oJWHYGo/lP4h/94z/DN7/3zcbWGd1d3fgP//af4OMfPC6f00YfuYWQz1GY13EALQx/2UX5Qhz5Bz+Eof0fgtfRXW+iJLrNMYwRrYA5a+aEBreklKlaa9Yq4Swdl+Am4Ugv67a4U69501o5U1OntSESthz5qTVqlUIOo4MT6Os9i/O9fXJ5ENmpHGrVigk1Gswur9mK4Evh+MmPteKRx7VvWH1rrZrEC6/2YGwyoXdv6G2z2UmMjAxJiJsJactNa8bu3LMfbe1daG1rNR34E0swptbKkwOp8wzpz9oAvMkjsApHEFVGEenJJ43BT6el17bBmWfAsiTRW21Ld1KDZadQdD+Ab39rEN/74es4f3EIHa0pHNy/Gz//83fhjs2n5PMw0th7YaJSDVGt/kE7O3kAR/GrsNvWaNqXK1fuc0W0mjGMETXZlUGt3lRqmb5SWosWtyWkyZKJR2iPB0hraJN1MxOOCVumLg6uhKxysYRxrTk7dw4Xzp7GuTO9KJUq5hF0BoN602iEdCqG3/jlBDZttCTUyXUS+PK5OF48vA7ZQkrv1tBautGREXNm5Uo1V6bTGezeexDJZBKplhTe+9SjyLQsTR+p5qmHaCssIayMwJ96C8H4c7C9RsCRY5vsbEFcB3OdD3l/7A4dT+Lyz87iOIis9fC9NNxAgqFdRsIpw4mPSG6cexy669JasWJNgpf2e4zjNf9/RH/4ACwdGoSILmEYI7pJmKZQLYTlcpuEsvZEhA2pmgQ0bQbVws6UeYYVc6QwtTCZr+Hc0SN4/plncfbMWRP0dAJuba7cvzuGT/93SVh6doPQfnBuzcb3n9uIbF62y+31n/43ODiEbHZ0RQKZhrE9e+9DIpky3aJ09P3tu3eas1NvGVpjJu9VlPsh3P5vwyqdR6y1Dak1LY0drs9MFJ5Zrnk09TOx+KIhKlQRefXar1K4AS+4n0UFnWadiGZw0Feim4QGqXodWIRqYCPv2hgsxzFciWHKjaHk63AflglVkrbMkkrEsGXHNjz06EM48NABdLR2wK26qFarGB6vwfMS2LtL9pfQo3164rEIa7tryBfSKJa0lqbeK66trT7yeWVW8+dy0bPtMpk2pDMtJjROjOXR3h5HuqXt0skPNz8NKCHs1J1w1j6OMKl9p7JwnOq8+41Z8rZZcWeJa8eWTlTxLjVP6lh9vd4TGIoeNutEdDmGMaKbkBa/04svIarg2chKIBurxTFRc1DytMmpfqKAGbXcctDRsQZ37NmD/fcdxB137kLccfDG0RFkpwIJZJbpj6aBLJUKsHF9DZEfYiKXljimpX4kAakViUQC5WoNYeAvWyDTsFcpl9DS0o5kMgXf9zDQN4RyqYZkKiXPIbagM0hXN+03FoPTKqGsbR/sYAx2OCbb53FstSpU3jPLtFevMp4O96EnfqgQQS2BY8Evomp1ySuT501El2EzJdEtqV6PlomF2NbqYXPaNU2Zwaz+0k4yhonhUXz/b76L1uhNfPApucX0OBxCR+U/eXINjrzTDR8OdGBYDWA6+OrAwEUzXtpyMmOObdqJ7rUb4MTrfan08bva4nj0A0+hpS1pgtstQwKz5Q8hPvavZWX+c1Xaa1ZZfzqd5aJQ7yemQj/A2cqH8Vbil2FHCx8sluh2wDBGdAvTQKbSEsQ2ZDxsTHtokYCmLVsmx0i4icdjGOofQsx9AWtbT8LXM/1MM5qOtRZhdKILL77UjYqnu9e/LgYHLyKXy5nLy0kDmQawdeu3Ycu2nYjF4jj4+D3Ytn3brRXEzPvkw8o9g3jlq3J5/mePmjMrdaiLZaqpXBDtsF+SwBXU35tIfuaLHXg58S9RttfAMrNfENGVbpW6fiKaw3Q/Mx3Q9XwhgdcnMziZSyHvNWYLkEDjuR56NvSgY/PHEXX9GhKdH4Qd65KC05Xb+mhziqgFZmdZt+DWfBQLCx/480ZoEEum27B5y1ZzefP2Ldixc8ctFMTkuGpn/qCEWP6vEa99X7YtbBgP7SAfVXSYiCYfEy+4LIipaimGfutJlOxuBjGia2AYI7pNmFAmZXZfKY4fjbXIz5naFJ3s3LIcKUfXIGj9OFLbfx/Jrg/AthI4N5Ay0zjprtq5vFytIFihccc0X3S2dyAWS5jO/GvXdUphf6sU6vUxxZz8N5EY+xewyz8Awssnzp6vSCfE1ze3SbSzvhnCYlYQq5VCFGs9GHDeD5tDWRBdE8MY0W3GdKCWlHNyKo6j2RSKweyBRiME1bwZ4sLq+TTi2/93dO94r2yfCV+hJwX/Cg7WOV2860C3pWJRLzS23HwsE8Ak2PojsEvPITb2B/Lz22abTk20GObsRW1LXskaMgnlUXn6cRvb5KdblqUQ4kL6oyg7N9nsCURNwDBGdBvSQKZl53A5hjfGUyj4jjaYXeJXy6gWJhBKQbrxro8g3aLDTKxcAJutUspdKuf7zvdjeGBU8lh9ANubh4QwSwKuPwwn/9eIZT+HWOGvYAfjctyX7nWYQFZyJSQtfyCLKi7Comtq5WbzavL5KYfIph7EYOxx81kjomvj0BZEtzGNAW7kmD5kPanATL10iYSv0Ksi1boG7W1JnD95wgwp4QUhCoXl77yvNHDValXY8lzaO9Yg8EOcO9WLWilAa1sa8WRc9pG/KXVqnRWaIWBh5DnZCVjeIOL5L0kQ+wJs7zysaDrALEOgDCRo13xYOmKuLktNO+kXqvLBkXA+O/TJS/EliNXyQMnejNcyv4MQMYYxonng2ZREpMOPYkPGx72dFblUrzW7RAKRk8rg5aefxrl33kEQuOjtuwC3VtYr6/ssM20W7e7ZgrU965BJZ0wtXUqCWLqlC45jYf+Dd2P9xu5ZjanNJAFIzwKN8rCqZ+D4J+Xn63KQJalIOFlJls51GXcWNzisBq5IA16AyJPQa9Yb182iQayStxEghZPpX8ZQ/FE5BuwrRjQfDGNEZOh0S1syLvZ21nSWwsvKW8u2zdyXrz37I5w9ecyMMTY01C9l9Ep+fViIxWNIJJISyFqwcctOc3ltTxcOvf8QEhLOmkeCjiWPL4Erql5AzH0dtn8alj8uB1ZrwTQIrUxwnYsZGNbUlOllCYQazK4VzuS9Nv3BvKBe06bv86zO+VcyNWJFC1bgoTf1CZxN/B0T8IlofhjGiOgSDWTbWuqB7F0dwbWGLJnCSz94GmffPobB4VHkp8bqzYQrKAwD7LzjbqzbsBmu6+Gh99yPnbu3r3AwnKYhTBKOPykB7Bis4tMSSLQfmB7Lla0FWxB9gvrUrxi9X8+qhb+w42hqxHK2fHI8TMYP4rX0b5ntbJ4kmj/+6UJEl1gIMViO4WJxjiAhYSeoVSX8vBcHH30UO7bfgbaOtbJ5ZRsHbTuBrq5uc1nPsOxeu9ZcXn76dSmL9k8LS7Bq5+AUv4V49o+RGP83sHNfkiA2KfvEVncQU5qT5G2L3PCyZaFBzKvWmyYtK0QhvhtvpX5dPkSyziBGtCAMY0R0GW2NOpVL4nxxjqEWJJBZYYC7DtyLJz/6Ydx7/wNobW1f4TMt5Tk4jUvLWubL16Mlx0AHZY0C2F4fnMqLErr+AvHJP0Js6s8kjH0XVvUduX66P9jt85XqliLUivXg5VqdOJn8FGpWGwd3JboBbKYkornJN8M9a1xsSk9P+Hw57UcGJ47jR47g21/7MnITowglJdmmL5J+rejPpafNlHfuvg/dPT1mnsz7Dh3A7rt3LVENnY4E5iDQCby9MTjhIOzaKVjecVnPyvUaunTeyOV5bTcFeWtr5VDCWAw6PZYlx+pE+rdxMX6QHfaJbhDDGBFdlZ6Md1eHi40SyOashZJM4sQTcKsues+cwflzZzHSfxb58UkUSmWUq9r3TJv1ZoKS9kubzjLXGivsWtel0y24Y/c9yGRaYDsOdu3Zhh27dyCVTsl6vXaq3ods5j6sRq1V/WVoG50ErqgmWysIvCqcaNz0/XL88wi9vASLUdhhRfbVgKG1Xld/PrcFefmBpzVi2k+s3jTp2W04k/wkLsbeKxH28vHGiGj+GMaI6JpiUgjv6fSwOa21QnOzbEdCWRJOssWMC1YpFlEq5JCdzEow60duKovy1BTyBbmuXEDVr0qACyT01CQ0+Wa0BNevhx1fOyJJ+LGuWbhbaGnrws4dEsAyHXIfgRmYtnttFzZs2YB1G7qRSGr40gRRkf/rPJtV2EFWgoQELqsAKxyG5eckdJUQBq6EMg2O2sQ23cxWD29U59UiuEVbjpVlasQCK4WTqV9sDOy6ks3URLcehjEiui6tpdrfVcOG1NxNlpc4DhKZNsSSKbOqc1teSYOTFOVmWqUg8BGFAQLtPK51VqGLqpmUHEiXvoPy6F+by9dkd8AJHfiOB0duG0ioSqQzaG3RQFdDIPfpmDG+NNzVQ0O9lkxHVGt0PqOrk7dFg1it4JjaUa0R035ixzO/houxJzjvJNESYBgjonlJSH7Z02iyvIwENW0anHzzNUz2voHOLXvR/dD7kWxtk+3zO6vQ0k7yVwqKiC78puSnQiM8vZsZimEOVqP/mPZokjVzmRYuCOq1Yb6+5ZFO3BTBc9pwJvVJ9DuPyrvCGjGipcDpkIhoXvQsy4mqDgdroSs5c8acBrGxF1/E4F/9R1TOnUDx+GFEFSC1fZsU4AFsO17v7H9NWqhfvth2C0IvC6t80tTOzLlc1XQIYxC7UdpaXCvYCLz6cTRNk3YSp9KfxqDzCIMY0RJipwgimjeNYGdzcfSVEqaflzZf5sYvYOg7n6v39ZL1wPcxfvQ7KBUn4FWqqBay8F25boHjUITaub7tfYic9sYWWglaqVjJRajm6/3DlA7o6lspnE79Q/Q7j0k0YxAjWkoMY0S0MPKtcbaQkCUpRbKEscMvwC8UG1eK0Efboz+JdLrLBLBIwplbyJklWGgoS26C3fKAXJipiaPloW+L5unylAW/NtOXTmebLDh34M3Mb+Ni7H6eNUm0DBjGiGjBdOrC3lICb04kkB++aGrEDAliicfuxfanPgHbntU5Xkp6rR0zoaw4JbvNs0C3Eog6Pmxq4Gj56JAVlVy9WTJsnNWqHLgoxu/AW5nfwJS9y9SQEdHSYxgjohsjAWusDBRys4a8aFmD7U/8ilznz1kDpmN/+bUaqlMTcEsFKfjn3m9apHVvmT0I0o/LGoPAUtMmyVpJa8NsBK49662QC5LJRuOP4JXU/4KitVG2sWmSaLkwjBHRjXMSCNs3yQUpuaVkTyZiSKS75OL1C26/UkKtkDWhLNCasquFMrlfZ8NvAPFtulLfRosS6lmSEsK0NswtSTEw67Da8BFZcfSmfhpH07+OwNYhQthMTLScGMaIaBEiBJv3yzeJhDHLhusFCP3iPM6erIuCAH61DDc/ddXmS60di2IZoPNDsOQx6AaZvKwhLEJlykZNQljgXX48bctH0dmOo5nP4HziY3Ls45xrkmgF8JuNiBbF33kI/todUtJHQGEcAydeQuQsbDBVHfh1uvmyOjWJ0HWvqF2T+259L8Lknvplmj85XNoc6ZUjlLOWhDDn0lmSMyIJYgEm4g/gtcxnMR47YJqUeayJVgbDGBHdOCmwvUwHco//AhBPIrJsTD39DE725VEJdP7Cxn4LEPquGQ6jVpiSAKH9yhq1ZfF2oPPjukd9na5LO+ZXi5ZpjqyaqYze/ZWvTZC+3Y4zqU/hrdSvwbXaYEXsn0e0khjGiGhxwhDBrifgHfyIrERwJvuQ+94X8GY2g4LnmBbMBZOQF3quhLESankJZrL4tQrs1ocQtX5QduAUPFejFVpeVWvBtE+YDa8icUubI6N3vxF6tmTOuhtHMp9Fb+JD8JCWcMawS7TSGMaIaJEiWIGH3CO/iNq2exA5ccROPYPKuTfw0ngbzhWS8OcIAvOlzZWBW4NbmEJpSoJZ+ycR2huvaMa8vWkAC7wIbhkoTVio5h0TwLR5ck6WhF07gd7kJ/BG2z9F3t4id6J9w9gsSdQMDGNEtDTiGXiP/BKQaIFdq6L9R5+H5RZxtpjE8VwKRd+5oWbLy4QewpqLSvzjqJZazLAMOm/iVUPHLUxf83QAq+a0KdJGragB7OoHWc+UtLRvWGw/jrX+Fk4mfxaelZTt7KRP1Eycm5KIlkgEv3MzAttH6txhWIVxxNLtqGw7iFI1wkg1Dse20BqPpPBfTA1MCCvRg9CvIMieQOAm4NcsWY8kiEQm8Fk31Da6+mkNmF+L4JUtCWEWvKqOlt+Ytug6tY96pmTgtOFU8hdwLvkzKFnrTJOkTv5NRM3FmjEiWjpRiNqDn0KwaZ+5HD/yVVgTFyUnOPCCCMcn4zgz6qKWy9cjwI1WlVkxYM1HEWbulpVIwoj2k7JRLTgoZ22UJ4FaMTId2PU6DTE3VeaQ56o1X6b2y5fXVgGq+Qil8XoTpL5WHSn/WrVgdTqte2iO/0j8MbyU+Vfojf8EAsjx0zsnolWBNWNEtLScOMKWLiRPvwCrkoPl5uDtesxcpdMaFVwb7jf+kwSyISQ2bEEylZZcsPCkZNkJ2K17YJXfQeTr3JjTwaQeUrTPlFeTMFOzTFNmYMKLZBBNZlqLpP/dYBZcSvWgqIGyXrsXuFrjpeES8PVnpVH75evfzvN/wjp1UWClMBm7D2dTP48LiQ/BtVrh8OQHolWHYYyIllYUSBjrRKzvMJxSDnZ5CrU7HkKU6dIrEcYlfCXSCP7636PSexrYfCfaOrsQLjiQRRLI0rASXYgKb8nqXDU9EsAkeEUm6Eio8SSkSTjzJNxo0NGQpqPRawiqN/NFWillQuNy0NcYynPQvvJ+LZQF9ebGitZ2yfPTRcJqfR8Nj/I8Fnjygw5VoWdJ1mJb8HbqH0gI+whKzgZ5XbYejcZeRLSaWH/5+kX+dhLRDZKgUM8ws0igkWDU8Z0/RPLkM7DkcvE9n0bl0N+r10pp0HES6Pry7yF+6nlz9qX9mT/GHZs2ImO5Cx4KQ0f790a/BYx+Qy7rYLMLvINZLEufn4a8+roTm3lhdmz+92vCXYNpTpRVUwMmonA5eodoc6T2l4tQsbfgov0BXEi/DyFiEsw4ZhjRaseaMSJaMB3cVZsjHT270a0h8n0JGYEJRlEsLskljsTAMcSHT+resP0Sant/HJEJS7pFlrZuxC4chu1WUPJiGFp/CLXQQdKJzDJvknKszE6EVgpW6YSms8YVN0ICl9akhfVFmwanF20+nO8y+3bmvrR2a3pZYtocqa85b92FvtTHcS7x0xhL7pNrtC6MZ0kS3QxYM0ZECyRhw3ORPP41tJ14CciP1Tc7MaC9B35bD2qb96DlzGtweg/Xr5MQVv7Ev0DxjkdgNUbU11jS8uyfIv3G1xGkWzD1M3+AoPtOJO0Q21tdbG9x4chO8229jKwEwqE/B6bkOd0GJPaZWq+J+EH0xT+IcWefBFKd1Fvxa53oZsIwRkQLok2B6aPfRMv3/g9ZeXdNj6UdoaIIkYYzWxbdFnjwHvpZTD71j2Bpz3Sz0UZiqh/tX/wsrPIUvHs/iqkPfMacPhjCboQyDxvTHhJyWYPZ9b6soqgmgewLEhDfaGy5tUgMNrWLAVLI2XeiP/4kxuL3sjmS6Ca3HJ0XiOhWFoWmJiuKJxobLhfFknJd6lIQUxog7P6jOkqprDUCnNyPu2Y7Ko/8Pe3ZjtjJZ5DQZk25nS3xwg0tnMkn8Np4GqcLKUx69fu7Vp8yy0rD3vCzQOehxpabnwYwbYq07Aj52C70Jv4O3mj5HRzN/KYEsYNmHwYxopsbwxgRLYh2RK9uOwR/0/6ZWq7rsWxYbsUs01nMCHxUDv4kgg27YRcn0Pbd/wAndDVVyW5aDxahHFi4WIzhyEQahycyGK3FTIXc3Cc8hvJQLXA2/oIEskcb225O2hk/hqr8tDGRfAjHWn4bhzOfxZnEx5GztssrdeQYBY3jREQ3M3bgJ6KFiycQbdkPe2oIztTA1ZLRDO1k77soP/Rz8q1T78Q/TYe5iFWyiA0ch50fhtfagWCjDhp7ecjQ1XLgYKgcx1g1hjCy4EhgseVPSn34y/+y1E79uxF5E4iqA3K9Pr/rPMcm0xowE6zsGAIriVxsK/pSP40TyU+iL/EBlKz1jf0YvohuNQxjRLRgliSjINWO6vYHYIU1xMYv1GvJGmdLXskKffj3/Diqd/2YaZK8TBggiKWQOvOCuWznhlDb+TCQbG3sMEODiC610MZ4LYbRWhxZ+VnVMbkkcCXsCI6kMtOUaSVgtexBaMv9lE+bsKP3sFpozZcuOl+knp3qO2swHrsPg4kfx4Xkh3Ex8WFk7d3w7BY53loDxhHziW5V7MBPRDdOa5xkyQy+g+Rzf4bYxWOmZsdsnxaFqK3fhtLf/bcIkm26ob59FquaQ8df/XPEx/tkxUbt0U8h9/inTW3a/FjmITNOgPXpAB1JWWIBkpINzbipuZcRDn7RPJdmsvREBG2GFYGdQM3egPHoIEZSDyLvbEGAjEQuCaRmD341E90uGMaIaNF0bDFHglOs71UkT7+E+NBJoJI1wSpYvweF9/8qos6tkoV82LKfpbVjkp58JwHbicH2yuj8yv8Ke/CE3FmEsGM9xj/9J7BiCbM+X1pvNi3jRGhLBGiLSzCLh0iUXkRy/JsSdIqyly/P4fL71Zq1xoX6z4Ww6velNYaX0SZU2eRbKVlaUEUXKrGNyEZ7UUjtQjFaa66zrFD2k+fEAEZ0W2IYI6IlIlHCdswwFnZlCqhqGJOg1boOfrJFAoeFxJEvoeXMq2YfHfrCT3ch7NwEb806tB7+KuyJ/vpdSWjLfvR34O//KMwEkzdoOpzFJRTF7QgJbxipoA/pcBwt4QjSUQHxaELWJ2RfDUQSFLX5UGcXX4BIXmdop+U+bFSsHjMnZMlah5rVharTI9u6zWXXboeHlNlPH0dr6hjAiIhhjIiWwezaJe0bZUOnQlr7n/8+rKnB+gCx0/tojZSOTab9zax6nzNtngzW7cLkr3wOUbC0E1ubgKaPY2rA6qPUO1FZQllVliJSEsziKCPmumiNl2SPXP2Gs0ShhCs7LuEqiVrUjsBpkVt0w5NAFlpJE86C0IJt+aZiT4fqqL9eft0S0bsxjBHRyoil0P7K55F8/v/WNNPYeG2j//C/wUqmZf/l/5qaCWkSHOWieYazmixlq9ad1VcaP2x5XuaiqeXS2jRd51cqES3M5WeDExEtl6CGwoGPwr3rCVjzrO2q14rNBKLlpCGq3m/LlZDlIqYLapcWW7ZfWo/qi27T/a3Ik59sciSiG8MwRkQrI4oQJVIofvCfonbPj9enTbqGqHMjbO3Az4BDRLc4hjEiWjkSyAIngfxH/mfkn/glhC1rZNu7myy1z5i/ZR+idKu5DRHRrYxhjIhWVhhKvgpRPfRLyH/sn6Nyx8F6IJs+g1EuR6lWlA58vD4EBhHRLY5hjIhWXqO2y998Dwo/84co/dTvwe3ZWp+/MvBQPfAh1DbdbYa4ICK61fFsSiJqPieOSIJYevwMgqCKYP0+hI72FyMiuvUxjBHR6qDjjTXGGTPDRLCvGBHdJthMSUSrg4YvbZbUhUGMiG4jDGNERERETcQwRkRERNREDGNERERETcQwRkRERNREDGNERERETcQwRkRERNREDGNERERETcQwRkRERNREDGNERERETcQwRkRERNREDGNERERETcQwRkRERNREDGNERERETcQwRkRERNREDGNERERETcQwRkRERNREDGNERERETcQwRkRERNREDGNERERETcQwRkRERNREDGNERERETcQwRkRERNREDGNERERETcQwRkRERNREDGNERERETcQwRkRERNREDGNERERETcQwRkRERNREDGNERERETcQwRkRERNREDGNERERETcQwRkRERNREDGNERERETcQwRkRERNREDGNERERETcQwRkRERNREDGNERERETcQwRkRERNREDGNERERETcQwRkRERNREDGNERERETcQwRkRERNREDGNERERETcQwRkRERNREDGNERERETcQwRkRERNREDGNERERETcQwRkRERNREDGNERERETcQwRkRERNREDGNERERETcQwRkRERNREDGNERERETcQwRkRERNREDGNERERETcQwRkRERNREDGNERERETcQwRkRERNREDGNERERETcQwRkRERNREDGNERERETQP8/2lLmufDfdSqAAAAAElFTkSuQmCC;" vertex="1" parent="1">
          <mxGeometry x="300" y="80" width="610" height="217.64" as="geometry" />
        </mxCell>
        <mxCell id="B9OUSxAQZ2tbWcy4EvlK-8" value="" style="rounded=0;whiteSpace=wrap;html=1;fillColor=#8697a2;strokeWidth=0;" vertex="1" parent="1">
          <mxGeometry x="300" y="298" width="610" height="42" as="geometry" />
        </mxCell>
        <mxCell id="B9OUSxAQZ2tbWcy4EvlK-10" value="&lt;font color=&quot;#d4e1f5&quot; style=&quot;font-size: 16px;&quot;&gt;&lt;b&gt;Home&lt;/b&gt;&lt;/font&gt;" style="rounded=0;whiteSpace=wrap;html=1;fillColor=#8697a2;strokeWidth=0;strokeColor=none;" vertex="1" parent="1">
          <mxGeometry x="300" y="298" width="90" height="42" as="geometry" />
        </mxCell>
        <mxCell id="B9OUSxAQZ2tbWcy4EvlK-11" value="&lt;font color=&quot;#d4e1f5&quot;&gt;&lt;span style=&quot;font-size: 16px;&quot;&gt;&lt;b&gt;Produtos&lt;/b&gt;&lt;/span&gt;&lt;/font&gt;" style="rounded=0;whiteSpace=wrap;html=1;fillColor=#8697a2;strokeWidth=0;strokeColor=none;" vertex="1" parent="1">
          <mxGeometry x="390" y="298" width="130" height="42" as="geometry" />
        </mxCell>
        <mxCell id="B9OUSxAQZ2tbWcy4EvlK-12" value="&lt;font color=&quot;#d4e1f5&quot;&gt;&lt;span style=&quot;font-size: 16px;&quot;&gt;&lt;b&gt;EndereÃ§os&lt;/b&gt;&lt;/span&gt;&lt;/font&gt;" style="rounded=0;whiteSpace=wrap;html=1;fillColor=#8697a2;strokeWidth=0;strokeColor=none;" vertex="1" parent="1">
          <mxGeometry x="520" y="297.64" width="130" height="42" as="geometry" />
        </mxCell>
        <mxCell id="B9OUSxAQZ2tbWcy4EvlK-13" value="&lt;font color=&quot;#d4e1f5&quot;&gt;&lt;span style=&quot;font-size: 16px;&quot;&gt;&lt;b&gt;Sobre&lt;/b&gt;&lt;/span&gt;&lt;/font&gt;" style="rounded=0;whiteSpace=wrap;html=1;fillColor=#8697a2;strokeWidth=0;strokeColor=none;" vertex="1" parent="1">
          <mxGeometry x="660" y="297.64" width="130" height="42" as="geometry" />
        </mxCell>
        <mxCell id="B9OUSxAQZ2tbWcy4EvlK-14" value="&lt;p style=&quot;margin: 0px 0px 15px; padding: 0px; text-align: justify; font-family: &amp;quot;Open Sans&amp;quot;, Arial, sans-serif; font-size: 14px; background-color: rgb(255, 255, 255);&quot;&gt;Lorem ipsum dolor sit amet, consectetur adipiscing elit. Praesent accumsan dictum enim, nec vestibulum dolor maximus ac. Sed hendrerit dapibus mauris. Fusce at ex nisi. Nam urna lacus, iaculis ut imperdiet vitae, hendrerit sit amet leo. Donec venenatis finibus felis nec tristique. Proin auctor massa ut rhoncus vulputate. Sed convallis turpis mattis sagittis dictum.&lt;/p&gt;&lt;p style=&quot;margin: 0px 0px 15px; padding: 0px; text-align: justify; font-family: &amp;quot;Open Sans&amp;quot;, Arial, sans-serif; font-size: 14px; background-color: rgb(255, 255, 255);&quot;&gt;Mauris nibh sapien, vulputate congue nisl non, efficitur varius risus. Curabitur dolor sem, venenatis ut mi&amp;nbsp;&lt;/p&gt;" style="rounded=0;whiteSpace=wrap;html=1;strokeColor=none;perimeterSpacing=5;spacing=14;" vertex="1" parent="1">
          <mxGeometry x="300" y="355" width="210" height="320" as="geometry" />
        </mxCell>
        <mxCell id="B9OUSxAQZ2tbWcy4EvlK-16" value="&lt;br&gt;&lt;p style=&quot;margin: 0px 0px 15px; padding: 0px; text-align: justify; color: rgb(0, 0, 0); font-family: &amp;quot;Open Sans&amp;quot;, Arial, sans-serif; font-size: 14px; font-style: normal; font-variant-ligatures: normal; font-variant-caps: normal; font-weight: 400; letter-spacing: normal; orphans: 2; text-indent: 0px; text-transform: none; widows: 2; word-spacing: 0px; -webkit-text-stroke-width: 0px; background-color: rgb(255, 255, 255); text-decoration-thickness: initial; text-decoration-style: initial; text-decoration-color: initial;&quot;&gt;Vestibulum sodales at ante quis vulputate. Aliquam id neque vel tellus venenatis mollis. Nam porta sapien sit amet pulvinar fringilla. In sed ipsum at ligula malesuada malesuada quis ac urna. Vivamus nec ipsum eu nibh auctor sagittis et laoreet sem. Maecenas tempor pellentesque sem sed mattis. Mauris porttitor lectus sit amet&amp;nbsp;&lt;/p&gt;" style="text;html=1;strokeColor=none;fillColor=none;align=center;verticalAlign=middle;whiteSpace=wrap;rounded=0;" vertex="1" parent="1">
          <mxGeometry x="510" y="343.64" width="185" height="236.36" as="geometry" />
        </mxCell>
        <mxCell id="B9OUSxAQZ2tbWcy4EvlK-19" value="" style="shape=image;verticalLabelPosition=bottom;labelBackgroundColor=default;verticalAlign=top;aspect=fixed;imageAspect=0;image=data:image/png,iVBORw0KGgoAAAANSUhEUgAAAdsAAAHFCAYAAAC6plPfAAAAAXNSR0IArs4c6QAAAARnQU1BAACxjwv8YQUAAAAJcEhZcwAAEnQAABJ0Ad5mH3gAAEkwSURBVHhe7d13cJvXmT/6L4lGEGDvvYpUsyTLlqvca9wd2/uLU7ZmS2Z27j87O/fu7j+ZO8n9TWZ2cjPZvcnN3XU2TvxbO4kd27Ed24lrLMuWbMnqjRR77wQBAiAA6p7n8GUiySosAAi87/eTQQgcUIlNgfjiOe85z8k4o4CIiIgSJtP4SkRERAnCsCUiIkowhi0REVGCMWyJiIgSjGFLRESUYAxbIiKiBGPYEhERJRjDloiIKMEYtkRERAnGsCUiIkowhi0REVGCMWyJiIgSjGFLRESUYAxbIiKiBGPYEhERJRjDloiIKMEYtkRERAnGsCUiIkowhi0REVGCMWyJiIgSjGFLRESUYAxbIiKiBGPYEhERJVjGGcW4T0SUcFPBMCKxGMLRGGYjEUTnF96C/OE5hCJRfX81MjMykJvlhN1m048z1K3Y49b3s512ZDucUN9ClFQMWyKKGwlPX3AO06Ew5I3Fr77OqWANqhCdVbd59XYTCEcQmZ//Q+DGjLANqj8rj1dLwjbb6YA9848Td3lul/6aZbepmx1uh7rp4HWorw4UurPgcTn0Y1smk5jij2FLRMsigelTIeoLzemvUpHKm4g89s+pm3rsV4Eqby2BORWssXkVolGEVJDKn00FLiN0s1Toytc8t1MHrTzOy3LpcPaoEF687zSqZKKVYtgS0SXpalSF5lQwpAO1e3IaMxKooYj6KmEb0d8nY1FVsaY7r8uJXHWT6limo/NV1SuhmyP31deC7Cz9PVJBEy0Vw5aIziHTvpOzIT0VLOE6HZSv4YWwVYHaM+kzvtMaFqelJYClyi1UYVuY7da3Ik+WDmOpgokuhWFLZHFyLXVyNqgXLi1OD4+rxxK4ErDT6nHMBBVrPMk0tIRtiTdbB26JJ9u474ZXBa/trOvFRIJhS2QxslhpUoXolApTmfqdUF9H/AGMB4L6vjxPyyOVbVVeDspzPShToVuoQrdAVbxSBTN4STBsiUxOrrnOqOpUB6yqXscCsxj0+TEyM6vDNRRluMZLhkw5O+y60i3LyUZNQS7KczzIM4KXrIthS2RCsq1GpoMlXCeDQQz5AuifnsGQClhZLZwqq4LNTqaba/NV4KqKt6EoH6Wq6pVrvLL1iKyFYUtkEosBK2E6NCPh6kfflE/fj8f+VVo5Wbcs+3lbSgpRnZ+DelXxLiy2Wmi2QebHsCVKYzH16yurhWUx0/jsrApXv6piVciqKpYBm5pkdXONCtxaFbjrS4v0oirZTnR2Ew4yH4YtURqShU0SshOzQZwem0L72CRGA7N/6MZE6cHrdGJjeRFaSwtRluPR13WddruuhMlcGLZEaUKmiaWBhCx0knBtG53UDSYYsOlPOlQ1Fedjc3kxagvzdC9ndq0yF4YtUQqT307pGSzNJAamZ9A14cOhgRF9XZa/uOa0XlW5O2orUJHr1dd1XSp0ZZUzpTeGLVEKkraHs7pFYhidE1M4MTyOU6qSJWtwSKVblIctlaWoK8jV+3ZljJGbvhi2RClEpoSli5Ncfz05PIFDg6P6uixZV0tJAa6pq9Shm5vl4kKqNMWwJVpj8hsYmY+pSjaqG07s6R7AqZFJfYIOkXCogN1cUYIbGqr01iFWuemHYUu0huT4Oalkeyansa9vGO1jU3ohFNGFSHV7Y0M1GovzkeNysspNIwxbojUg12Tl2Lqu8Sns6uxH79QMQ5aWrLW0CDc3VavwzdNdqnjcX+pj2BIlkYSsNPrvmlAh29Gvt/AQrYS0fLyyqkxfz5X+yw4bq9xUxrAlSgLp9BRSIXtahesHHX3oUBUtUTzIgQc3N9bgispSHcCsclMTw5YogeSXay4qITuF35/uRRsrWUoAuXYrfZdvaa5BY1E+AzcFMWyJEkR+scYDs/ioawD7eod0i0WiRCrxuHFzUw2urq0wRQeq+fl5+P1+5ObmGiPpi2FLlADSkOLgwAh2d/brs2P5S0bJItuENpYX446WelTleY3R9CNB29fXh5/97Gf4l3/5F2M0ffGKOlEczcViODw4ip9+ehSvHG3H4AyDlpIrokJKXoO/OnRSt/aU12S6kaBtb2/HP/7jP8Is9SDDlihORvwBvHSoDc8fPKkXQskRd5w3orUwr154PZM+vHS4Da8f79CHV6SLmPpw0NbWhm9+85vo6urCli1bjGfSG8OWaJWkcni/vQdP7z2CfX1DCITn9Jsd0VqS16A0TNnbPYhXjrRjeCZgPJPahoeH8cMf/hD79u2DzWbDunXrjGfSG6/ZEq2CHBCwq6MPPVM+vX+WIUupSPbgyilCOxuqcVVNuTGaenp7e/G9730Pb7zxBkKhEKqrq/H222/Dbrcb35G+WNkSrYAcDvDasdN4+Uib3s4j3aAYtJSqpC1o/9QM3mnrxkdd/cZoahkaGtKLod58800dtC6XCxs2bDBF0AqGLdEySdenXx08pQ8MGAsEdVcoolQnjVVG/LM6cF892p5SC6fGxsbw8ssv45e//CWCwYVTrtxuN7Zu3arvmwHDlmiJZJ/sWye78PLhNrSPs5ql9COv18lgGHt7BvGLz06kxPGNExMTePXVV/HjH/8YPp/PGAWcTqdprtcKhi3REshe2ecPnMSHnX0YmgnoaTmidCTLdOSD4vHhcbxy9PSaBm4gEMAHH+zCfz39tK5uzybTyE1NTcaj9MewJboMabP4ywMncHJ0HD6uNCaTCEWjODkyoVcqywfIZIuq//9PPvkE/88PfoD+vj5jdIFcpy0tLUVVVZUxkv4YtkQXIdPGLx0+hQ86etGjj8BjNUvmEpbAHZ3AG8c7klrhStDK1p6nnnoKnR2ncea8dQ9S1dbX1+upZLNg2BKdRwrXNvUGJNPGn/YOYXI2ZJouNkTnk+Yrp9Tr/dUkTimfPHkSzzzzDPbv36+7RZ1PwraxsdF4ZA4MW6KzxObPYE/PgN7Wc3xkXO+dZcyS2UngyjXcFw+dQu/UHxcpJcJi0O7atUtv8bkQWYm8ceNG45E5MGyJFAnUwNwc3jrViffae9QbzowKXk4bk3XIViC5hvvbE116NicRZC+tNKx46623zll5fL6srCy0tLQYj8yBYUuWJwuepJXdb451YHfXAEb9s8YzRNYie3HlEorM7MiUcjxndaampvDb3/4WL730kt7uczEOhwOVlZUoLi42RsyBYUuWJoue2kYn8eaJTuzvG4afZ86SxS2eGiQHGIQiEWN0deRM2rfefhs///kv0NPTY4xemEwhNzQ0mKZz1CKGLVmWXKeSN5XfnerC0aGxtDyKjCgRpCvawYFRvN/ei+AqA1dWHu/Zswe/+PnPcerUKWP04mQKWcLWbBi2ZElyuPsnPYP6+mzn+BSvzxKdR34ndnf169+TlW57k6Ddu3cvnn32WRw+fBjz85f/QJudnY3W1lbjkXkwbMlSZAvPVDCk30Rk/2z/9IzxDBGdTzpNfdjZj5Mj4yvqAX706FE899xzurKdm1vaJRqGLVGak8UfsvhJjsSTtotyiAARXZr8nrzb3oPuiellBe7p06fxwgsvYPfu3ZidXdqiQ2liUVFRgfz8fGPEPBi2ZAnyJjE47VfVbJ9uwu4LcSEU0VJ1qaCV3x0J3qW0K5U+x3K4gGzxmZycNEYvz+PxmG7LzyKGLZmeBK2c5Sk9jvf1DempMSJaHml68an6oCor9i8Vt9PT03ov7W9+8xsMDw8bo0sjYdvc3Gw8MheGLZlaJBZDz6QPuzr7cGBgRK9AJqLlkw+t0r5UGl9IT+ULkY5Q7773Hp597jm0t7cbo0vHypYoDUmwdhrTX7KNgSuOiVZHDuf4qKsfQ76Abm16Pllx/Itf/AKnTl5+i8/5MjIy4PF6UV1dbYyYC8OWTEmCtmN8Sk8dyx5aBi1RfHRP+vR2oGlVxZ4dt93d3Xj++edx7OjRJW3xOZ/D6URJSQlyc3ONEXNh2JLpyDmdp8cm9dYeuc7EoCWKL5lOloYwQWP9w8zMDF588UX8/ve/1/dXIkdVtetMer1WMGzJVCRopf3ie6qilWtLRBR/cv32w45+vU89qCrc999/H2+++SZGRkaM71g+qWg3bNhgPDIfhi2Zxlw0piraKV3RSmVLRIkzPhvEkaExfLT/Mzz905+ivf208czK5OTkmHZxlGDYkilIX+OOiSndsEICl4gSb3/vEJ759W/Q0dm1ouu0izIzM3XYymk/ZsWwpbQnfVs7x6d1n+NTo5w6JkqW2UgU86VVsOUXItNmM0aXT076kVXIcgiBWTFsKa3J4qe+KZ+eOpZrtUSUXEVNLajYtBWunDxjZPny8vKwbt0645E5MWwpbck+vwGfH7/v6FMVLYOWaK1UbL4S+dW1yFzhGbRerxd1dXXGI3Ni2FJakv19w/4A3mnr4T5aojXmKSlFzVXXIaesQrpTGKNLx7AlSkEStL5QGB+qivYE99FSGpKjHs2mbOMVKKpv0s0plkMWRxUWFqKpqckYMSeGLaUVeYvyh8N451Q3Dg6M6FXIROlEgjY84zMemYfN4VSBuwXe8splVbcFBQWmv14rGLaUVqRjzfvtvfpQgWDkws3QiVLZfDSC/s8+wXzMfK/fsg1XoKR5AxxZbmPk8mQlslS2gUAAkUjElFW/sH1TMe4TpTRZEPVxVz/29sp5tGFjlCi9xCJzOPnWazqQ9DVOk7E5nfCPDGJ2YswYuTSfz4dDhw7h5MmTekq5QAWvw27XBxPIzSwy1KcIc36MIFORV6mcNvLe6R6MB4LGKFH6iQRnseuH30V+ZTWu/NKfG6Pmcvw3L6Fj1zuIhJb3u5qZaUNJaSnuvedu3Hfffdi6dasOYLmle/ByGpnSgjSr+Ki7n0FLaU1qm7nZAKb7utG7f48OXjOSxVL5tfXGo6WTLlTDQ4N4+umn8ZWvfAUPPfQQnnrqKQwODhrfkb4YtpTyxgKz+N2pTgxO+40RovQ0H41iotPoIayCd3qgz5TXKAvrGvXKZLtr5R2honKoSFsb/vVf/xX33HMP/uqv/govv/yynnZORwxbSmkz4TBeOtSG3smZc87OJEpHsihqonshbCVkxztOLVwjMZuMDJS2btKhuxryM4rFYpidncUHH3yAf/qnf8Idd92Nf/7nf8ZHH32kAzldMGwpZYXVL9IbxzvRNTmtj/QiSmd6CnnGh6FD+40RNWbi13VBXQMKG5phj1O/YwndsPrwPTk+ps/O/cY3voGHH34Y3//+99He3p7ywcuwpZQlBwscGx5DiFt8aLlUsEVDIeNBapBVyCOnjiPkNw5XV/+MM0MD+qsZZWTaUKTCNr+q1hiJD/2hZW5OH1Iv08z/+Z//iS9/+cv42te+hv/+7//W13clmFMNw5ZS0u7OPnzaO4SZcITTx7RsURVsnbvfNR6lhmgwiM5d7+qwWDQX8Jv69Z1fU4fC2gbY7Q5jJL4kVGV/7vj4OPbv36+v7z7xxBN6uvmVV17B5GTq9Exn2FLKOTUygQ87+zEVDJ/zxkS0VDFV+XR++D5C06lxtrGsOu7a8wFmRoeNkQU2l8u4Z06ylzi/rgHeJOwnlmnk6elpXdm+/vrr+Pa3v42vf/3r+Na3voV9+/YhqD7srCWGLaUU2drzTls3xtTXeQYtrZR67YR80zj+xsvGwNqRFchTfd3o27sbZ84+YD0jAzlllaZq3PA56t+toK5xRduAVkMWVI2OjuLIkSN44YUX8A//8A/4u7/7O72N6PTp07pTVbKxgxSljDn1pvT68Q59XB57HtNqyPXR7t3vwa8qSTnUXK+KXYNQO3NmHgH1z3D89ZcxNdB7zvVZCdmKTdtQWN9o6sC1O13qg88Upvt7EQ0n9zr6/Py8XlQl24Wk4j127BjeeecdHD58WE8/5+bm6lsyMGwpZbytKtr9fcMIrsGnTjIXqSaHjh5CYHJcL0LylpbDU1SS1FCTlcYzI0M49tqLGDt98nO9kKUrUsPO2+AtKTN12Mq/2xn19+EfGUZgbMQYTT4JXql4JyYm0Nvbi4MHD+rtQ9ImUhQVFcG5zBOLloPTyJQS2lQ1u693CP45Loii1ZMgyymv0JVkcGoSR195Hj2f7E5a838dtCrkj7/+EkbbjulK+3NUCMlqXTMH7aLcymo9u2BL0EKp5ZKqtq+vTwXuIezZuxcHDhxAV1eXXuWcKOyNTGvOH57DM58eQ8fEpD5sgGi1pLIdPLwfn/zsP4wR6Mq2evs1aLzpDrg83oRNK8virPHONrS//QbGezrV488fmpGhPgwU1Tdj59//ozFifgMHP8XxN36NmeG1b71YXV2Nbdu24ZprrkFra6s+dUgq25ycHP1BLREYtrSm5Nrsq0fb8UnPEK/TUvwYFe173/0WwgFjX6viyslFybr1aNx5O/Kr65BptxvPrJ5Us4HxEfR/9qkK+s/gG+zXvX4vRP5/r3joT/Q0slX4R4Zw6u3X9QxDsnm9Xn1m7vr167Fp0ybU19ejpKQEZWVlOmCTgWFLa0ZeeHu7+/GbYx0IcPqY4kwqzAO//Cl69+0xRhbIIed5VTWo2LwNlVu2I7uwSDdgWClZYRyansZo23EMHtqPyf6eS245kmljd34hbv7f/g9k5eUbo+Yn5/jKdqzjb7yEaDixR2Ta1d9xXV0t1jU3Y+PGjWhoaEB5ebmuXiVks7Ozje9MHoYtrQl50Q3PBPDTT45gRH3li5DiTSrN8Y427PnPf0PkAlO5Eni5FZW6w1GeqnIL65vg8uboKd6lkA5VM8MDGO86jameLr3aVhYAXayaXSTXLeuvvxlXPPolY8Q6ho4e1Nux5GcVT3l5ebpabWxsRHFxsf5aUVGh70v1Ks/bbCv/QBUPDFtaE7Li+MVDbdjfN8SgpYSRrSafPfcT9Es/4ou81Tk9Xh28eeWVyKmo0pWup6gU9vMaTszHYrrjU3jGpw9Gl21F8jUwPoaQGpPK7XIkyHNKK7Djz/7WlAfHX478zNreeQPde3YZI8sjswJSpUqwSpi63W4dphKqcistLdVTxlLBOhypsRhrEcOWki6mKo59KmRfOtyGcJTXaSlx5O1t/PQp7H36/9VBeSmyH9fpyVHVrReuHFUJnfdmLZWyhLd0gwr7ZzDn91+2ij2fdFTa+MAX0XDDrcaItcTUh+zuj3+vt0NFLzDbIFzqQ44EqSxU8ng8qK2t1SEqQSshK/flVlBQoLfq5Ofn6z+T6qu6GbaUVNIVasgXwLP7j2HAx/NpKfHkDf74b17E6Q/e0ddX14pcK67YvBVbvvhlXU1blWNmCsUzYyh0XXhxmlSkUqVKeGZlZenKVQJVwlfupyuGLSWNvNAC4Tm8fESmj8/tEUuUSDJ9efCXP8NYR5uuUJNNpo9zK6qw7YmvoaC2wRi1prIcD25fV4era8qNEWtgUwtKmkg0hs9UyB4aGDVGiJJDujS13HmfDrrVrDxeiQybTV+nbbr5TssHrZgKhjDo8+vLSVbCsKWkkGYV/eoX7MPOPh4ET2uipGUjWu74ggq8en19NhkkaL3FZai7bieqr9xhjFqbrNMY9c/qU72shGFLSSGrj+WM2tHA2h5zRdZWvmkr1t1+r/5qS2AfXCGBvlDR3q47V2WmSKvCVDAdCuvq1koYtpRwkdg8OsanOX1MKUGaWbTedT9qr74eWbn5yMiI/9ugPcutK+nmW+9C7Y4b4PIm52SZdDGtqtpBX8B4ZA1cIEUJJS+vEf8sfnXoFNrHJo1RorUn59327ftYn8gj/XqDU1OrPqhAqmW5Plzc3IqqrVehsL7ZeIbOlpmRgW1VZXh8aytc9rVtNpEsDFtKqNm5CD7uHsBrx04bI0SpZbq/BxNdpzHadkJ3NgpOT+qDDJZKFlw53G7dDEP6LZeqirakdaPeU0sXt66kAA9uakZVXnJ6E681hi0ljCyE6hibwvMHT2J8ltdqKbVJo/zR9hO69aJ/bASR2QAioeDngle28dicLhWmWXq62J2bj+yiEhTUNaC4cZ0eo8srz/HgzpZ6XFmdvntnl4NhSwkhL6rxwCzePNHJPbWUVqTt4nR/nz7BR6rc85vmy8InlydHHyLgLijUR/fZXVnGs7RUXqcD19dX4d4NjcaIuTFsKSHCqho4ODCCXx08hQi3+hDReeS67dbKUnxp+wbYM82/VperkSnu5PPbWCCIfb3DDFoiuiBp3SpHa8rKZCtg2FLcBSNRfa22e2LaGCEi+jwJW9mtYAUMW4or+bQqm9X39gyyqiWiS5JmN7K2wwoYthRXM+E5nBiZ4Ik+RHRZUtkOz1gjbLlAKs4i6pNa9LytAnNzc4jFYvpa5qLFsUVyX/7cfIpVg3JepO28PrJyBJbdfu7xWPLYrsY7J6bxyrEOjFms7ykRrcym8mL82Y7NsJl8kRTD9jzy4zg7+CQ8z/4RyX0Zk+fk++T+2YaHh/Xt7NDs7e3FlHSnOWuss7MTPp/PeAR9X/7c7GxqfcqrqalBYWGh8WiBnClZXn7u8VhykHNJRRVOT/txOjCnD+FeJGc6Z0o4qzvSGk/fVxzubPU4tQ98JqLEaizKxxPbWlHq9Rgj5mTpsJXwCwaDCIVCOjjlJhXn2NgYhoaGEAgEdFDK9yyS57u6uuD3+3VASmjSpUm4ekvKYXe5dMB6S8v0QdA1V9/why478j3SLEC68UgAy2kpksMZNjXOQCYyrao8L+7b0IT1ZUXGiDlZOmxnZmbwq1/9Cq++9homxifQ19+PaGTOeJaSSY49cxcUwZ1foAJYBXJJGWx2B3Irq3RHHh3EEsJGIEtYy32dyESUtgqzs3Brcy1ubKg2RszJ8tPI//nUU/jud/9vhENsJ5iqXN4cFcKFcHo8ultPTnklcsur4CkuOTeIMxYCWIcwEaUFj9OBa2or8MAmcx/aYPmwfffdd/H9738fhw4dMkYonSyGb3ZBIXIrqpBf06AbwtsczoXpZx3CCxUxEaUeCdsdKmzlUAIzs3zYyjXXH/7wh3jhhReMEUp3Mv2cnV+AHBW+uZXVKKxrRGF9E2wul3pWBa98E6efiVKCtG3cXF6CP7tmszFiTpYPW/FfP/kJvvOd7yAyx+u1pmIEqvy3nNIi1W9OWSVKWzchr7pGH4dGRGtPFkf99XVbjUfmxLBV3nvvPXzve9/D4cOHjREyoz9OKy9c4810LKySrtxyJTzFperrVcZ3ElEyMWwtoqOjAz/60Y/w/PPPGyNkFXItV45MkxXO2bl5yDemnAsbmvQirMXqmIgSp64gF09sW4+KXK8xYj4MW0X21z7zzP/C//U//ye3/liYXkilgjfTZtcBnOXNQV5NPUpbN+oAzi4s5kIrogSoVWH7+NZWVOX9sRmO2TBsDe+//z6++93v4siRI8YIWZ2earbb9cpm+SrXewtq61C+aSvyqurUuMP4TiJaDYathUjHqB//+Md46qmnjBGic0nFKwFrd2Uhy+NF0bpWlLRsUlVvo+6MRUQrU57jwX0bm3SfZLNi2BpkKvnFF1/Et7/97XN6FhNdiFS9Err2LBW83lzk19ShqKkVxc2tyMrNM76LiJai2JONu1rrcXXNuT3XzYQXoAxysk11dTVaWlqMEaKLk8+okVAQwalJTPX3ou+zvTj66gvY++N/x8Ff/gwDB/chPMMPbURLc0b9Thl3TYphe5b6+nps27bNeES0NGfOzKvgDangncBkb48K3k9U8D6PT376/+HIy7/A8PFDmAvwfF8iK7N9UzHuW15WVhamp6exb9++lDvqjtLFGcxHo4gEZxGcnoJ/ZBDjne2Y6DqN4OSkvu7r8nj0ViMiWiAHixRlZ6G5pMAYMR9WtmeRA9AbGhqwZcsWY4Ro5c7MxzA3G1CBO4SRk0fR8cFbOPzis+r2HAYP79fT0EQkx52eQTgaMx6ZE8P2PHV1dbj66quNR0TxEYtEdKU72dOpp5mPvf4yDvz8p2h/901MqMpXnici82LYnsfr9aK1tVVfvyWKt8WFVTNDAxg8egCnP3hbL6w69srzGDxyAJFgwPhOIjIThu155NpBZWUlrrjiCmOEKDHk2q6sZpbruT37PsKJN3+Nwy/9HL37PkZgfNT4LiLzi52ZR0j9PpgZw/YCysvLsXXrNtjt7BBEiaer3WAQ0/296P/sU5x6+3Uce+1X6Nu/B6HpSeO7iMwrEpvHTNjcrXIZthcgU8ktrS16sRRRMsWikYUp5iMHdOgeeeV5dOx6B4GxEeM7iMxnXj5wqsA1M4btBchUck11Na65ZocxQpRcMsXsG+xH/4FP0f7eb3HsNy+he88uhi5RmmLYXkRpaSl27NiB/Px8Y4Qo+c7Mz2N2YhwDBz9F2ztv6NDt/PA9hP0zMv9sfBcRpTqG7UVIgwtZlbx9+3ZjhGjtyHVd/+iwqnQ/wal3XseJN17WVW9wclwHMhGlNobtJZSVleHGG280HhGlhuDkBDp3v4+Tb72GE797FUNHD+qOVax0iVIXw/YScnJysGHDBtTU1BgjRKlDrul2f7xLh+7p936LsdOnEJsz94pOMq8z6j8xE8/SMGwvQRZKVVVVYefOncYIUeqZ6u3Wi6hOqdDt3vuhXs0sC6yI0knU5Nt/GLaXUVRUhOuuuw5ut9sYIUo90UgEI6eO4+TvXsWpd97Q3ankiD8eV03pIjp/Bv4587YtZdhehoSsLJTi4QSUDiRgez/9CCfffBWdu9/DVHcHouGw8SwRrRWG7RLIQql7773XeESU+nxD/WhXFe7J372mtw3NTozpU4iIaG0wbJdAOkpt3rxZ770lShcytTx0/DCOv/EyOne9g/GONkRmedAB0Vpg2C6BLJSqqKjAbbfdZowQpQ857KBz13s4/vrL+ni/Wdmby2u5REnFsF0i6SR10003ITs72xghSh/RaATjne04/uav0fHBO5gZ7OcZukRJxLBdIlkotWnTJh69R2ltzj+jqtx3cfK3r2Ks/QTmZv3GM0SUSAzbZSgsLMSDDz4Ih4NH71H6kpOF+g/t04fW9+7bg+DUBBdPESUYw3YZZKGUtG/k0XtkBtKBSircU2+9Dt9AH7cIESUQw3aZcnNzcc899xiPiNLbXMCPnr27cPTXz2PkxOGFHstEFHcM22WSsJU9tx6PxxghSm+xaBQj7Sdw7PWX0PPJbn18H1crE8UXw3aZZBuQ7Le97777jBEic/CPDOPEm6/ofblyshCv4xLFD8N2BaS6ffLJJ+FyuYwRInOQaeTePR/i8AvP6Ou4PNCAkiUjA7DJf5kUw3YF7HY7amtrccsttxgjROYRi0UxfOo4Dv3qWQwfO4RYhMf2UeJlqffVilyv8ch8GLYrJNdsH3vsMdhsNmOEyDzmYzGMd53GQRW47e/9jhUu0SoxbFfI6XRix44d2L59uzFCZD4h35RugiFn5XKlMtHKMWxXISsrCw888IDxiMicQjPTuro98Pz/QjQcMkaJaDkYtqsgC6Sko5QcUkBkZtG5MAYP7cfHP/oe/CODxigRLRXDdpWkZ/Lf/M3fGI+IzGs+FsVEbzc+e/YnDFyiZWLYrpJcu33kkUdY3ZIlSOBO9vcwcCmuMjMy4DT5YlOGbRzIsXtf//rXkWHiPWJEi2Rl8pQK3AMMXIoTl92Gwuws45E5MWzjQLb/SL9kqW4ZuGQF0uKRFS7FS4b6j1S3ZsawjQMJWGnh+Pjjj3PfLVkGA5do6Ri2cSIh+8UvfhHZHu9C3zEiC5Ap5cm+Hhx47mkVuEMADzAguiCGbRxVVlbikYcfhpOHy5OFLKxS7lKB+xN9ED0Dl5bLac9EvtvcveYZtnEk1e3f/M1fIyc3j9duyVKkveNETxeOvPIC5mYDDFxaFltmJtwmL1IYtnEmi6Qee+yLPBGILGd+Pobh44dx+OVfIDrHwwto6aQ0MXuBwrBNgK999auoqqrSZ98SWYm0cxw8/BlO//4tdT9sjBIR0yAB5Nrtww8/rPffElmNBG7X7vd16MZY4dISOGw25GY5jUfmxLBNEFmZLKHLrUBkRcHpSbS98zomezp5PB9dlj0zE9lOu/HInBi2CSLXbp988knk5uYaI0TW4hsaQNvbr+sVyme4YIouQS7XsqkFrdj999+P9evX6/7JRFY01n4SHbvexZx/xhgh+jxbZgayHKxsaYWKiorwla98BQUFBcYIkbXEYlH07d+DwSOfIRIMGqNE53Jk2pDj4jVbWoWbb74Z27dv10fxEVlRWFW1HR++h+mBXl6/pQvKVJUtT/2hVfF4PHj00Ud1lUtkVb6BPvR8shuhmWljhGiBXhxl8ilkwbBNguuuuw7XX389vF6vMUJkPUNHD2L4+BFEgrPGCBFURZsJrwXWtTBsk0CqWzkRqLKqim0cybLmAn50f/wBfIP9ODMfM0bJ6uQ9URZImR3DNkm2bNmCm2+6GXn5+cYIkfVM9XVj4NA+hKY5nUwLHFLZmnxxlGDYJols/3n88cdwxebN3ApEltZ/cB8me7sQi0SMEbIyWRhl9pXIgmGbROvWrcOdd96JkpISY4TIekLTUxg8tB+zk+PGCFmZnPhj9j22gmGbZLfffrueUuZWILKywWMHMdHZzsMKiJUtJcbiIQW1dXVcLEWWFQ2FMHTkAAJjI8YIWZVcs/U4zX2WrWDYrgFpdCHbgdg3maxs7PQpvWAqOsfq1sqcdhvy3OY//5thuwbkYPmHHnxQTydzsRRZVSQUxNDRQwiMDhsjZDW2jAy4VNhKYwuzY9iukW3btuELX/gCqqtrOJ1MljXWfkJVtz1cmWxRErR5qviwAobtGpKwveHGG+BhZymyKKluJ7pOI8iVyZZkt2XCbYGVyIJhu4bkmu0X7r0Xmzdtgt1ujRcc0fmmerv1Qqkz8/PGCFmFS73v5Vrgeq1g2K4xWSh11113oayszBghshY5DWiyp4s9ky3IYZFDCATDNgXcd999uPHGG5GVlWWMEFnLVH8PAuNjxiOyimynAyXebOORuTFsU0BpaSkeeughfe6tzeRnOhJdiEwl+0eHcebMGWOErEC2/VihL7Jg2KYIOYLv7rvv5nQyWVLIN6XCdohTyRYiuzCyVNhaoaGFYNimkHvuuUc3vHA4rPHiIzqbb6Afs+OjxiMyO69MIXusMYUsGLYpRKaTH3jgAezYsYN7b8lyAmPDCE5NGo/I7KSRheyztQqGbYqR6WTZf8vpZLIa39AAAhNjAK/bWoLsry3Its6iUIZtCpLq9uFHHoHDaY39Z0SLZL/t7NSE8YjMzO20I59hS2tJml08+aUv4YuPPmKMEFnDyMljmOg8bTwiM8t2OFDoZtjSGquursa9996Lq6++2hghMr/A+Ch8g32IBIPGCJmRHEAgq5Ctsu1HMGxTlCyQuuGGG/D444/rhVNEVlB5xZWo3HIVHGzwYmrSzCLfQlWtYNimMOmXfNNNN+Hhhx+BnUfxkYnJ67v2qmux7vZ7kVdVI582jWfIjCRsCyzSE3kRwzbFSVX76KOP4KEHHjBGiMxFgrZx5+1ovechFbS1yLDA2aZWJ/2QrbQ4SvBVneIy1RtPU1MTHnvsMezcudMYJTIHZ7YHTbfchfrrb0Z2YTEy2a7UEjiNTClJppOvvPJKfPnLX0ZLS4sxSpTePMWl2Hj/F1VVexvcBUWsaC1CFkflZrlQwLClVORyufRxfE8++STy8vKMUaL0VFDbgE0PPoaqK3fA5c1l0FqIW1e1LtgyrXVdnq/wNCL7b+Wwgj/9sz/jgilKW5VXbNcVbVnrJjiy3FwMZTG5LieKLdQTeRHDNo3IdiB9HN+DD+JPnnjCGCVKD9IRreGGW9By5xdQ1NAEGzukWZJMIZd41Ycsi2HYphlZMFVTU6PDVg6dJ0oH7vxCNN9+L5puvgO5ldXItPNkK6vKzXJa5sD4szFs05AcwScLpb761a/ixhtvNEaJUlOeCtcNX3gYddfuhKe4DJk2u/EMWU2W3Y48Vdk6LbjqnGGbpmTB1JYtW/Dnf/7n2Lx5szFKlFoqt16Fjfc/hoorrkRWbh4XQlmcVLWFHutNIQu+8tOY2+3Gtddei7/927/Fpk2bjFGitSf7Z1vuvA8td9yHkpb1XAhFWp7bhWKGLaUjj8eDW265BV//+tfZQ5lSQmFd48L+2Rtv060XOW1Miwqz3SjP9RiPrIVhawJnB25JSYkxSpR8NVddh/X3Pqy+XousvHy9gp5ISIvGouwsfbSeFTFsTUL24D766KP467/+a308H1HSqECVDlDrbr9HHyRQ0rKB23roc6Q9Y5FFp5AFw9YkpIIoKCjQPZT/8i//khUuJUWGzYaSphasv+t+NN96N3IrqljN0gXJwqhSrzWnkAXD1kTkTU5aOT788MM6cIuLi41niOJLXmuubA/qr7sJLXc9gJqrr9NtF4kuxJ6ZiRIVtqxsyTQWA/dLX/oS/uIv/oKBS3EnC55k4ZNMGbfc/gWUrFvPJhV0STkupw5al926pzoxbE1IAjcnJ0c3vZB9uJWVlZzao1WT11CWNwfVV+5Ay533o/HmO+AuKDSeJbo4CVordo06W8YZxbhPJjQ7O4tnn30WTz/9NAYGBsC/bloJu9OF/Jo6fXhAxdar4C0pM54hurxr6ypxT2uD3mdrVaxsTS47OxuP/Y//gY133Ivc8ip28KFlkdeLVK/V269By133o+nWuxi0tCxuh11fr/W6rH2pge+8JieV7PDsHHK3X4/m2+9BXlWtXkFKdDkOtxvFza1o2nk7Wu96AKUtG3ltlpatLMeD8lwvbBb/oM+wNbnI/Dz2dA9g/sxCw4EWFbglTa3qTZNdfejC5LXhLSlV1ey1WH/3g2i86XZem6UVK/Vm65vVMWxNbF5Vtf3TMzg2PP6Ha7WVW6/G+nsfQtmGK9ivls6RkZGpDwsobd2E5lvvwfp7HkRR4zpWs7RicrqPBG2+ha/VLmLYmti8Kmc/7hpAJBYzRhYU1jdh0/2PoWrLdrh5Egsp0vEpr7IK9dfuVK+NL6L++pu5b5ZWTQ6Jl1XIVp9CFvwJmJRUtSP+WZwYnjBGzuUtLUOrqnBrr5EzRkuRyeu4liRTxp6iElRs3qYXQDXfdg9yyiuNZ4lWR67XFnMKWePWH5MKzEXw8uE27OsbMkYuLBaZQ8/eD9HzyUfwDfapxxHjGTKzjEwbnB4P8iqqUXXlDh22To/XeJZo9Ry2TNzVUo+bGmvgtHAzi0UMWxOKzs/j1MgEfvbpUcydN4V8McPHDqHjw/cw0XUa0VCQ+3FNSq7L2rOykFNarq/NyjX83ApWshR/VXle3Lu+ERvL2cVOMGxNRv46J2ZDeP7gSZwavfAU8sX4R4fR8f7vMHT8CEK+KcwvMagpPdicTngLi1HU1KJXGufX1vOsWUoYaWRx+7o6yx4Wfz6GrckEI1F80NGHN090GCPLI9PKvZ9+hO49H8I32K8fU3qzOZxwer0oqG1A3TU36rCVjlBEiSKrkO/b2Igb6qu4OMrAsDURmT7uHJ/Cj/ccXvL08cWMnT6F06rKHe9oQ0SmldX/NqUXWfzkzPbo1ec1V1+P4qZW3aiCKNGaivN1e8am4gJjhBi2JrG4+vj5AyfQOTFtjK5OaHoSvfv2oG//Xj3FHItGZJ7aeJZSlYSs7KHOq65Fww23oKR5g75OS5QMsnN/Z2MNbmmuQYGbr7tFDFsTkL9CuU77u5Nd+KR30BiNn4nOdnR9+B5G2o4jHPCzyk1RErL6wIDqOjTdfAeKVCVrd3G6mJIrS70Ov7ilBVfVlBsjJBi2aU7+8nzBMHZ19uGdtu6FwQSIBGcxcHAfuj7+/cK13GiUVW6KkJC12R0obl6P2mtu0OfL2l2sKGhtbCgrwt2tDagtYFOUszFs05j8xc2E5rCnZwBvHF/Zgqjlmp0cR9fu36Pn090I+2dwhiuW10iGbkQih0pUbrkS9dfdpBdAsbUirSU58/jBTU24rq7K0gfFXwjDNo1NS0XboSra9sRVtBcz3deD079/C0NHDy4soOLLKCnkzQwZmXB7PKhRAVtz1bXwFJex5SalhPIcDx7avA6tpTy44nwM2zQlQftBRy/ebe8xRpJvPhrFZE8nOne9g+FjhxGZCxvPUCJI0Mq2ndqrrkPNjhsYsJRyrq+vwq3NtdxbewEM2zQ05PPjzZOdODI4plchryV5+UjHKQnd3k92q0r3ECLhkPEsxYPN4UC1CtiG629GbmWNCtkM3QmKKJV4nA48sW09NleU6BXJdC6GbRqRhhXHhsZ0Rds/7V/zoD2brFCW6eSp3i707fsYQ4cPYI6hu2LS7am4sUX3LZZD26WPcYbNvjCNTJSCrlAhKwujKvPYY/tCGLZpYkBVsx+c7lVhO47ZSCSlgvaPzuBMbB7RuTCCU5O62u0/8ClGTh41nqdLyczMhLe4FFWqii1tWY+csiq90lifyMSQpRT3yBXrsKO2Qm/9oc9LybCNzZ/B+OwsTo9NIyxbTC5C/lJLcrJhU29Eco1ApjHM9snfFwpjX98w9nQPYCoYQlSFWTp8OpJKV3ory5ah6YFePcU8cvwI5lT1S38krRTlUICS1o0oWbcBeVXVasylbqqKzeRqTkoPDYV5eGBTM+rUV34svLCUC1sJF9kvemhgFBH1hn2pfzwJVglaydfMjEwduNImTEK4IDsLZSqIC9xufdRTupEFUIcHR3GgfxhDMwGEorE0XfF7BvPqnz0SmsXs+DgGjxyAb6hfr2K2Kofbg/yaWh2uRY3N+jxZCV25SSVLlG7u39ikDx6QgocuLKXCVnr7doxP4b/3HcNMePkN8KXhtUsFqw5hdd+emYEcl0uHcKkKXrmWUJOfq8acxp9ILfLvP+QL4IgK2ZOjExgPBFXIRnWlbwZn5iV0Q/pwg5mhAYy1ncRo+wl9nTc9P0gsjTScyCktQ0F9EwobmpFXWQNHdrbu9mRTNx7cT+msxJuNx7e2oqko33Qzi/GUUmEr/yCTs0HddnBvT3zaDmaqv3y7Cl6pbuUkCjnE2KZCWD6BVeR4dQWcm+VEea5HhbJ6A0zydopILIZBFbDdk9PoHJ/WVax80AhFoil6XTY+ZNuQrGKW8A2MDWOqr1tvHwqMDiM8G0jr8LU7HKpaLdW9ifOq61S4VsOdXwCb+uAnnZ2kguWbEpnFzU01+sY+yJeWctPIUsVJ8Pxkr3rjnYsYo/EngSvhKyFsy1BBrEJY7rsdduRluVQAu1CiwjdbhXKJ161DWb5/teTfSSrWQZ8fIypYZeHTVDCsK9hQRFV+KnzNG7EXpoM3HMKcCtnYnPqg4ZvC6Knj8Knqd2awT3eqmldVf6ryFJfq6665KlRzyiqQXVAEp8er+xLrcGX1SiaVrT5YPnnVRrSWFOr3VLq4lFwgNasCSXr9vnmi0xhJHqmEJXSlwpVw1aGsgtil7kvwyqc3ea4sx2P8icsb9gf0wqbRwKzeviPH34VVsIblq4mmieNFwncu4NcBLLeQbxqB8VHdk9k/MoTg9BTCM9OIRRL3YexsThWYWYVFukKVw9alMs1WjyVkHdkeOLIWAnXhq1SuDjacIEu4prYCd7bUo4hNLC4rJcNWpk+HVdX33P7j6JueMUbXnlwHdhrXhJezvF0CVf6dwtGYqaeGE0XCNzYX1vt4o8Y1XznuT0J4TlW9IZ9PVb8+vfI5POPTAb0S0igiu6gYWTl56muJHvOox3ImrA5Tt1t/jwSp7IOVqpXbcsiqdFW7fQNaSguTfvktHaVk2Io5FUwHB0bwwqFTemqV6HxS2c6r0NXhq++rUFZfV3w4gsrMxWuqi+e//iFQiegcO2oqcPf6BhRm81rtUqRs2Mo/1HQwhN8c68C+vqGFQSIiWnNSyUpVu7G8OC5rWawgZWt/mZiTbTs3NFQh380DsImIUkVzcQEqcr1wMGiXLKUn2mVxUqX6C93ZUG2MEBHRWpKq9srqUlUEZbFb1DKk/FVtWRm8raoM68uKjBEiIlorjUX5qCvI07s0aOlSPmxl5W+e24U71tXp/a9ERLQ2pKq9qqZM9yFgVbs8abFeW/a+1hXk6uu3RES0NuoL8/SNVe3ypUXYCjl+TI5vWldSyG2NRERJJlXt9fVVrGpXKG3CVv5yc10u3CXdSrLd/MsmIkoiOWigsUhVtVyBvCJpE7ZCKlo5Qk+OcnLyKDIioqRw2W36Mp7bwSP0ViqtwnbR1TXlaCkpYONrIqIk2FBWrFchy+4QWpm0/MnJNQM50qnM69GLp4iIKDHkCFKpal2cTVyVtP2YIp+y5AXgdTl5/ZaIKEGkz0F1Xg5nElcprecEZDp5W1Upl6ETESVAqTdbr5Hh9PHqpfVPUPpy3tJUg4bCfB7xREQUR7aMDNzUWI1ij5uX6+Ig7RNK+nPe1lyLyjwvpzmIiOKkOj9XTyGzkIkPU/wUm0sKcF1dJQpU8PITGBHR6rgddty2rhZZ6ivFh2k+slxZXYYtFSXIdjq4YIqIaIWkYNlYVozN5cUsXuLINGErXU1uaKzW5yxywRQR0fJJthZkZ+Hu9fX6EBiKH1NNxss0skx9yPFPXD1HRLQ8WXY7bm6sQbEn2xiheDFdIsl+ML1gKpf7woiIlkreL+VEn52N1cYIxZMpy7+W0kJcW1excGABp0KIiC5J3idlZ8e96xuNEYo30861ykZsaXiRyw5TRESXlO2w48b6KlTn5xgjFG+mvrB527o6bKks4UkVREQXIftoa/JzcV19pTFCiWDqsJUVyrc012JDWRHPYCQiOo9cZct3u3DvhgYeNJBgpg5bISuUv7CxEevLCrlnjIjoLF6nE9fXV+nKlhLL9GErJHBvaarVB89zwRQR0cLMn7wn3tpca4xQIlkibIUsaZeVds3qxUVEZGUyy1ee48E96xuMEUo0y4StkMC9Y129PguXiMiqijxu3LexCaVejzFCiWapsBVS2cqm7ao8LnEnIuvxupy4sqqUs3xJZrmwlWu2m8tLcHNTjZ5GISKyCpfdhnXFBbrg4PqV5LJc2AppSyYNL2QfbkUuA5eIzE+u09YX5OGhzc3IdjqNUUoWS4atkI3cWytLcFuzBK7XGCUiMifpDiXbIHOyXOyqtwYsG7bCYbPhCh24tQxcIjKt8lwPbm1aOKCFQbs2LB22Qvaaba5QgbtOXogMXCIyl8LsLOyoqdCd9HgS2tqxfNgKWTSwubx4IXDzGLhEZA7SinFHbYW+OdX7HK0dhq1B+oJuVIF7d2sDmooLjFEiovQkB8G3lhapqrYcHicPY1lrDNuzyIuzpaQQtzbVoJmBS0RpSi6PbSwvwi3qvUzOqaW1x7A9j0wpS2V7R0sdrqgoMUaJiNKDLSND9zy+ob4KJd5s7qdNEQzbC5DAbSjMx03qU+GWylK9TYiIKB00qqCVg1eq83N50lkKyTijGPfpPJHYPIZm/NjXO4yPuvoRnZ83niEiSj11hXn6FJ8NpUVw2FgkpBKG7WXE1I9nzD+LPd2D+KxvCL7wnPEMEVHqqMnPwU2NNXqhp9vBg+BTDcN2CebVj2gyGMLhgVG8397DwCWilCKHv+9sqNJBm82VxymJYbtE8kPyq5A90DeMT3oH0T/tX3iCiGgNSdDeqIJ2E4M2pTFsl0F+UMFIBG2jk9jbPYgTI+MLTxARrQFpwrOzoVp3weNe2tTGsF0BWSjVPenDJz1yHXeYC6eIKOmkor2+vlJXtHJGLaU2hu0KyXXcscDCwql9vUOY4XVcIkoSVrTph2G7CvKDk+u4n6oKd4+6jfpnF54gIkoQWXV8XX2V7ufOijZ9MGzjIByN6pXK+/qG0TY2Cf5IiSgR5EzamxqrsbGMi6HSDcM2jjrGp7C7sx9Hh8YwF4sZo0REq1edp4K2iUGbrhi2cSbXcSVwjwyO6b25cm2XiGilpNdxbUEubmiowvqyImQ7GLTpiGGbABFV1crWoM/6R9A75eNqZSJaEeltvK64ADc316CxKF+f5kPpiWGbQLIPV1Yrd4xNIhCJ8louES2ZHPnZLIcKNNfqbT7sdZzeGLYJtrg96OjQqLofRGyeP24iujSZKpbzaO9sqUexx81j8kyAYZsEMq28v28YB4xp5ZBUucZzRERny81yYUtFiapoa1DgzmLQmgTDNol6J334uHsAJ0cmMB0Kc/EUEZ1Dqtjt1eV6ew9XHJsLwzbJZuciOnAPDYxixB/AXDTGKpfI4mQhVEWuV4fs1qpSLoQyIYbtGjmlqtt9fUNoH5uCj1UukWVJsFbl5eDRLet04ErwkvkwbNfQbCSysEWobxijgVlWuUQWI32Nm4sL8MCmJl6fNTmGbQpoH1s4sk86UMmBBtyXS2RuUr3mu136+uytzTVws1GF6TFsU4Sckytdpz41DqYPSZXLvxoi05Fp41JvNu5qrden9pA1MGxTzORsCHt6BvRWoelgmFUukUnIBLHb6dAdoe7d0KAC17PwBFkCwzYFScCeHBnHro5+dE9OIxKb5wIqojQm08Z5WS7sqC3HPesbjVGyEoZtCptSle1nfUP4pHcI44Egq1yiNCPVrN1mQ0WuB/dvbNKLociaGLZpYMgXwAcdvTg0OKq7T7HKJUp9srLY47TjiooSPLipGS673XiGrIhhmyZiqqrtm575w/F94ZgcbGA8SUQpxZ6ZqffM3rO+ARvKioxRsjKGbZqR0JXruL892YW20UljlIhShRwisK2qVK82lj7HRIJhm4bkb8w/N4ejg6P4UFW6Az6/8QwRrRU55L2mIBd3tdSjpbSQnaDoHAzbNCV/afPzZ3QTjEMDI3/Yn0tEyScrja+tq8DOxmrdoIJBS+dj2KY5+cuLxuZ16H7aM4iPuvrhU/eJKPEWz529oaEKlbleOHiAAF0Ew9Yk5G9xLhaDXwWtNMSQhVS+cNh4lojiyZaZiZq8HB2yG8uL4bLbWM3SJTFsTUb+NmWlsj8cwcH+YeyS0A0xdInipTLPi+vrKrG+rAg5LpeqZjONZ4gujmFrUvKXKntypdKVs3N3d/VjOhjiqUJEKyQHB1xdU45tVWUozM6C027XTSuIloJhawFyYL1UuidHJ7C3ewBDMwE2xiBaohyXU++VlZCtzs+B22HnlDEtG8PWQoKq0pUp5VOjk3oFc8+kjy0giS5CQnV9aRGurC7Th7t7XQ7drIJoJRi2FrQYugPTfhwdGsXxkQk95UxECyErPYw3VxSjriAP+e4sXpelVWPYWpisXpbQHfQFcHpsSgXvGKaCIU4xkyVJ1dqkQnZbVQlqVcgWuF28Lktxw7AlPZUs+3SnZkN6ivnI4ChG/LOcYiZLcKiQlZXFWytLUZ7rQUF2lj40gCFL8cSwpXP4QnMYnw1iYHoGnePTOD0+qceIzEYaUqwrWZgurszNQZHHzeliShiGLV1QKBrFdDCMUVXhDs8E0DkxrRdUBeYixncQpaf8LJfuXdxaWoTyHA+KvW4ufKKEY9jSJcn1W1lQNaGq3cFpPzrGp3TwTs6GEONLh9JIVZ4Xm8qL9criUhWyRdlu2DI5WUzJwbClJZMFVRKyUukO+vzom5rRJw5NqQqYKBU5bTbUF+bqloqlXo8OXI/TCW6TpWRj2NKySbUrjTImVPCOBRammXsnZ9A7PaPHidaSNJyQbk+ybaelpBAlOW7U5OdyqpjWFMOWVmVhmjmCkZlZvYVocMaP7gmfDuFwNGZ8F1FiScB6nQ5UqMq1vjAPJZ5slOV69Ek8RKmAYUtxE5s/s9Asw+f/w8IqaZwxFgjqBVdE8SbTxGU52SjP8aKmIEeHqxwUIFt3iFIJw5YSIjY/r6/lyrXdURW2Er4Li6wC8M9xKxGtnEwHy15YCVUJ1wp1K/Fm68MBOFVMqYphSwknU83TquKdUKHbrypdqXzHVPhKCMupRESXIy0Uiz1uvRe2MNutqtmFxU4SsgxYSgcMW0oqeblJ8A7NzGJYha50qppSj8eN4JUezXxBklyDlYCValUCVsJVqthSFa55bunwZDO+kyg9MGxpTcnqZQnawZnAQhONwKyugMdnQzp82afZOqRCzc1y6sb/ErASrHKTaWJZXWxjBUtpjGFLKWXxYAS51it7eieDIV0JS9/mWVX1MnzNQ6pXj9Ohg1TOjJWQld7Esh9WvsoYkVkwbCmlyTTzYhMNCV9ZdCULrALhiG4dycMS0osEaI6qXiVk87JceouObNeR67EStpweJrNi2FLakGCVVc1yk+1EMv3sC8/pqWiZcvarAA7HYvq6MK29LLsdbqdd7391q1u2w66vvUo/YlnkJIubGK5kFQxbSmsy7SzBK9XvkC+gwjeswjeKqUAAY1M+zEUiyLDZYXe5kMFrfgljkylhlwNZDoeuWt0Om+49LKFampOt78t2Ha4cJqti2JKpSP9mWWh14FQ7Xnv3PZzu7oXd6YQ7vxCFZeVoXLcOwUhMd72SDle8Brw8EpZZqhp1qpvcz5aKVd2kuUSFVKx65bAKV/WVZ8IS/RHDlkzpxIkT+OEPf4hXX31VP85Ub/zX3HgT/vdv/p/wz5/BsKqCpbezXP+V0JUpavlNkBCWU46sSt4O5qMROFWQFuYt9BOWYJWAzVD/yXLYVZWapatUmSaW660yLUxEl8awJVMaHh7Gf/3Xf+E//uM/jBFg+/bt+M53voPGxkb9WAJWrvvqPb5zEV3lyjGCshhLRNTzcyqIpVqWX5KwsQdY/lw0psJZf1f6kVXAcki6VKN29TUmZxdPTmJ6YhzRcBihmWk0lpfhTx64Ty9mktXCxZ5s408T0UowbMmULhS2W7duxbe+9S1s3LjRGLm0xevBcpNfE7kmLG0oJZjludBZ09ASwNIbWh7L/Xl1X8j366pZP4q/xeCUqnOR056px+U/+jl1X45ttWfakKnuSJUqq4JlJbCE6eTEBH772it4+9cvI+SbQlRV9/fddx/+7d/+zfhfJKLVYtiSKcUjbC9Fql2Zho6or8IXMlZDS5UYlCBemIqWsRlVLUoQJ4JDVaeybebsQ9ClEYRM/cpzBaoqXbififysLD0NfL6BgQH86Ec/wjPPPGOMgGFLFGcMWzKl8fFx/OQnP8EPfvADYyS+YWsmDFuixOM6fDKloqIi1NTUGI+IiNYWw5aIiCjBGLZkGXLFZH6e7R2JKPkYtmQZgUAAvb29xiMiouRh2JJlRKNRBINB4xFdDmcBiOKHYUtEnyOrudva2oxHRLRaDFsiIqIEY9gSERElGMOWiIgowRi2RBY3MTGB0dFR4xERJQLDlsjiwuEwV2kTJRjDlsjipNkHW6QTJRbDloiIKMEYtmRKMi3q8/mMR0REa4thS6bk9/sxOTlpPCIiWlsMWzIlaTUYMw52JyJaawxbIouLRCL6RkSJw7Alsrjp6Wm915aIEodhS2Rxc3Nzeq8tESUOw5aIiCjBGLZEREQJxrAlIiJKMIYtmdLMzAzGxsaMR3Qp7I1MlHgMWzKl2dlZdpBaIvlgIiuSiShxGLZEFsfVyESJx7AlIiJKMIYtERFRgjFsiSxMFkZxcRRR4jFsyZSk1y+vQ16eLIyampoyHhFRojBsyZQCgQBDZAmi0ai+EVFiMWzJlKSqle0/RESpgGFLZGE895coORi2RBYm0+1+v994RESJwrAlsjDpssXuUUSJx7AlU5KpUVmRTESUChi2ZEpcjUxEqYRhS6YkjRqkwT4RUSpg2BIRESUYw5bIws6cOaNvRJRYDFsiCwuFQuyNTJQEDFsyHVZrSzcxMYHx8XHjERElCsOWTEeaNHAlMhGlEoYtmY6ELRs1EFEqYdgSERElGMOWiIgowRi2RERECcawJSIiSjCGLZmO9EXmAqmlkcVkbGtJlHgMWzIdbv1ZOglaOWaPiBKLYUumIw0t5ufnjUd0KfJz4s+KKPEYtkRERAnGsCUiIkowhi2ZTiQSwdzcnPGIiGjtMWzJdGQl8tjYmPGIiGjtMWzJdKLRKCvbJRgdHdU3Iko8hi2RRclZtuFw2HhERInEsCUiIkowhi2ZjlRs0kWKiChVMGzJdHieLRGlGoYtmQ63/ixNMBjUNyJKPIYtkUVJT2QeQkCUHAxbMhXZ9iM3ujyp/jkDQJQcDFsyFanULnbij4QwF04R0Vpg2JKpyDXIiwWqrFJmZykiWgsMW7KMWCyG2dlZ4xFJQws2tSBKDoYtmYpcg2SALI0skOLB8UTJwbAlU5FrttxjuzSsbImSh2FLpiLhwb2jRJRqGLZE9DnSGITXt4nih2FLpiJVLUNiaeTndLGflYzz+D2i+GHYkqlMTk5ye88SjY+PY2Jiwnh0Llm5zYYXRPHDsCUiIkowhi2ZyqUWSLFa+yMeHE+UXAxbMhWZGh0ZGTEenUvChVPMC4aHh/mzIEoihi1ZhlS13IO7NGfOnMH8/LzxiIhWi2FLRJ8jH0x4/B5R/DBsiehz/H6/nmomovhg2BIRESUYw5YsRa5F8nD5hZ+D3C7lcs8T0dIxbMlSpDNSb2+v8ci6ZKHYpa7JSrtGHrRPFD8MW7IUnmm74HJhK88NDAwYj4hotRi2RBZ0ubBdxKlkovhg2JKlMDwWSOOPyzW1kE5c0iSEiFaPYUum4fP59O1SpJo7fvy48ciapqam0NHRcdkglZaO7DJFFB8Z6pM+P+qTKfT39+MHP/gBnnvuOWPk86qrq/H3f//3eOKJJ4wR65FfeVmRvbgqe3BwEH19ffq+BLEsIJOgLS0txS233ILa2lr9HBGtHMOWTOPQoUP493//d7z99tvGyOdJgPzpn/4pvvGNbxgjJG0ZF1szytvB4v2MjAzY7XZkZnICjGi1+FtEpnHy5MnLThHzMILPkzCVUJWbw+GAy+XSN6fTyaAlihNWtmQasqVHrsnK9h5ZbSvTyhKuMl0qASvTpRImra2teOSRR4w/RUSUeAxbMiUJXAlZeXnLbfGxkMD1eDz6PhFRMjBsiYiIEowXZIiIiBKMYUtERJRgDFsiIqIEY9gSERElGMOWiIgowRi2RERECcawJSIiSjCGLRERUYIxbImIiBKMYUtERJRgDFsiIqIEY9gSERElGMOWiIgowRi2RERECQX8/90hd/Xu2ByLAAAAAElFTkSuQmCC;" vertex="1" parent="1">
          <mxGeometry x="689.8" y="350" width="220.2" height="210" as="geometry" />
        </mxCell>
        <mxCell id="B9OUSxAQZ2tbWcy4EvlK-20" value="" style="rounded=0;whiteSpace=wrap;html=1;fillColor=#8697a2;strokeWidth=0;" vertex="1" parent="1">
          <mxGeometry x="300" y="680" width="610" height="42" as="geometry" />
        </mxCell>
        <mxCell id="B9OUSxAQZ2tbWcy4EvlK-21" value="&lt;font color=&quot;#d4e1f5&quot; style=&quot;font-size: 16px;&quot;&gt;&lt;b&gt;Birds LTDA - Curitiba - PR&lt;/b&gt;&lt;/font&gt;" style="rounded=0;whiteSpace=wrap;html=1;fillColor=#8697a2;strokeWidth=0;strokeColor=none;align=left;" vertex="1" parent="1">
          <mxGeometry x="475" y="680" width="260" height="42" as="geometry" />
        </mxCell>
        <mxCell id="B9OUSxAQZ2tbWcy4EvlK-22" value="" style="shape=curlyBracket;whiteSpace=wrap;html=1;rounded=1;labelPosition=left;verticalLabelPosition=middle;align=right;verticalAlign=middle;strokeWidth=3;" vertex="1" parent="1">
          <mxGeometry x="250" y="80" width="40" height="260" as="geometry" />
        </mxCell>
        <mxCell id="B9OUSxAQZ2tbWcy4EvlK-23" value="Header" style="text;strokeColor=none;fillColor=none;html=1;fontSize=24;fontStyle=1;verticalAlign=middle;align=center;" vertex="1" parent="1">
          <mxGeometry x="150" y="190" width="100" height="40" as="geometry" />
        </mxCell>
        <mxCell id="B9OUSxAQZ2tbWcy4EvlK-24" value="" style="shape=curlyBracket;whiteSpace=wrap;html=1;rounded=1;labelPosition=left;verticalLabelPosition=middle;align=right;verticalAlign=middle;strokeWidth=3;" vertex="1" parent="1">
          <mxGeometry x="250" y="350" width="40" height="330" as="geometry" />
        </mxCell>
        <mxCell id="B9OUSxAQZ2tbWcy4EvlK-25" value="Main" style="text;strokeColor=none;fillColor=none;html=1;fontSize=24;fontStyle=1;verticalAlign=middle;align=center;" vertex="1" parent="1">
          <mxGeometry x="140" y="495" width="100" height="40" as="geometry" />
        </mxCell>
        <mxCell id="B9OUSxAQZ2tbWcy4EvlK-26" value="Footer" style="text;strokeColor=none;fillColor=none;html=1;fontSize=24;fontStyle=1;verticalAlign=middle;align=center;" vertex="1" parent="1">
          <mxGeometry x="150" y="690" width="100" height="40" as="geometry" />
        </mxCell>
        <mxCell id="B9OUSxAQZ2tbWcy4EvlK-27" value="" style="shape=curlyBracket;whiteSpace=wrap;html=1;rounded=1;labelPosition=left;verticalLabelPosition=middle;align=right;verticalAlign=middle;strokeWidth=3;" vertex="1" parent="1">
          <mxGeometry x="250" y="690" width="40" height="30" as="geometry" />
        </mxCell>
        <mxCell id="B9OUSxAQZ2tbWcy4EvlK-28" value="" style="shape=curlyBracket;whiteSpace=wrap;html=1;rounded=1;flipH=1;labelPosition=right;verticalLabelPosition=middle;align=right;verticalAlign=middle;strokeWidth=3;" vertex="1" parent="1">
          <mxGeometry x="920" y="80" width="20" height="210" as="geometry" />
        </mxCell>
        <mxCell id="B9OUSxAQZ2tbWcy4EvlK-29" value="Deve desaparecer&lt;br style=&quot;font-size: 14px;&quot;&gt;com a movimentaÃ§Ã£o vertical" style="rounded=0;whiteSpace=wrap;html=1;fontSize=14;fontStyle=1" vertex="1" parent="1">
          <mxGeometry x="950" y="120" width="120" height="120" as="geometry" />
        </mxCell>
        <mxCell id="B9OUSxAQZ2tbWcy4EvlK-30" value="" style="shape=curlyBracket;whiteSpace=wrap;html=1;rounded=1;flipH=1;labelPosition=right;verticalLabelPosition=middle;align=right;verticalAlign=middle;strokeWidth=3;" vertex="1" parent="1">
          <mxGeometry x="920" y="293.64" width="20" height="50" as="geometry" />
        </mxCell>
        <mxCell id="B9OUSxAQZ2tbWcy4EvlK-31" value="Deve ficar fixo no topo da pÃ¡gina com a movimentaÃ§Ã£o vertical" style="rounded=0;whiteSpace=wrap;html=1;fontSize=14;fontStyle=1" vertex="1" parent="1">
          <mxGeometry x="950" y="268.64" width="120" height="100" as="geometry" />
        </mxCell>
        <mxCell id="B9OUSxAQZ2tbWcy4EvlK-32" value="&lt;span style=&quot;color: rgb(0, 0, 0); font-family: &amp;quot;Open Sans&amp;quot;, Arial, sans-serif; font-size: 14px; font-style: normal; font-variant-ligatures: normal; font-variant-caps: normal; font-weight: 400; letter-spacing: normal; orphans: 2; text-align: justify; text-indent: 0px; text-transform: none; widows: 2; word-spacing: 0px; -webkit-text-stroke-width: 0px; background-color: rgb(255, 255, 255); text-decoration-thickness: initial; text-decoration-style: initial; text-decoration-color: initial; float: none; display: inline !important;&quot;&gt;purus porttitor porta. In eu erat eu est elementum lacinia sit amet id ligula. Integer in mauris mauris. Ut in erat odio.id, scelerisque fermentum est. Vestibulum auctor, eros at placerat posuere, quam augue consequat sapien, sed porttitor dolor magna a tellus.&amp;nbsp;&lt;/span&gt;" style="text;whiteSpace=wrap;html=1;" vertex="1" parent="1">
          <mxGeometry x="510" y="570" width="380" height="100" as="geometry" />
        </mxCell>
        <mxCell id="B9OUSxAQZ2tbWcy4EvlK-35" value="" style="shape=curlyBracket;whiteSpace=wrap;html=1;rounded=1;labelPosition=left;verticalLabelPosition=middle;align=right;verticalAlign=middle;strokeWidth=3;rotation=-90;size=0.22727272727272727;" vertex="1" parent="1">
          <mxGeometry x="556.25" y="428.75" width="100" height="597.5" as="geometry" />
        </mxCell>
        <mxCell id="B9OUSxAQZ2tbWcy4EvlK-36" value="Duas colunas: coluna da esquerda com o dobro da largura da coluna da direita" style="rounded=0;whiteSpace=wrap;html=1;fontSize=14;fontStyle=1" vertex="1" parent="1">
          <mxGeometry x="427.5" y="780" width="350" height="60" as="geometry" />
        </mxCell>
        <mxCell id="B9OUSxAQZ2tbWcy4EvlK-37" value="L" style="text;html=1;fontSize=24;fontStyle=1;verticalAlign=middle;align=center;fillColor=default;fontColor=#FF8000;" vertex="1" parent="1">
          <mxGeometry x="310" y="343.64" width="20" height="36.36" as="geometry" />
        </mxCell>
        <mxCell id="B9OUSxAQZ2tbWcy4EvlK-38" value="M" style="text;html=1;fontSize=24;fontStyle=1;verticalAlign=middle;align=center;fillColor=default;fontColor=#FF8000;" vertex="1" parent="1">
          <mxGeometry x="310" y="601.8199999999999" width="20" height="36.36" as="geometry" />
        </mxCell>
        <mxCell id="B9OUSxAQZ2tbWcy4EvlK-39" value="V" style="text;html=1;fontSize=24;fontStyle=1;verticalAlign=middle;align=center;fillColor=default;fontColor=#FF8000;" vertex="1" parent="1">
          <mxGeometry x="510" y="349" width="20" height="36.36" as="geometry" />
        </mxCell>
        <mxCell id="B9OUSxAQZ2tbWcy4EvlK-41" value="P" style="text;html=1;fontSize=24;fontStyle=1;verticalAlign=middle;align=center;fillColor=default;fontColor=#FF8000;" vertex="1" parent="1">
          <mxGeometry x="510" y="573" width="20" height="36.36" as="geometry" />
        </mxCell>
        <mxCell id="B9OUSxAQZ2tbWcy4EvlK-43" value="Primeiras letras de parÃ¡grafo devem ser maior que as outras letras" style="rounded=0;whiteSpace=wrap;html=1;fontSize=14;fontStyle=1" vertex="1" parent="1">
          <mxGeometry x="960" y="470" width="120" height="100" as="geometry" />
        </mxCell>
        <mxCell id="B9OUSxAQZ2tbWcy4EvlK-44" value="" style="endArrow=classic;html=1;rounded=0;exitX=0;exitY=0.5;exitDx=0;exitDy=0;entryX=1;entryY=0.75;entryDx=0;entryDy=0;strokeWidth=4;strokeColor=#0000FF;" edge="1" parent="1" source="B9OUSxAQZ2tbWcy4EvlK-43" target="B9OUSxAQZ2tbWcy4EvlK-39">
          <mxGeometry width="50" height="50" relative="1" as="geometry">
            <mxPoint x="520" y="510" as="sourcePoint" />
            <mxPoint x="570" y="460" as="targetPoint" />
          </mxGeometry>
        </mxCell>
        <mxCell id="B9OUSxAQZ2tbWcy4EvlK-47" value="" style="endArrow=classic;html=1;rounded=0;strokeWidth=4;entryX=1;entryY=0.5;entryDx=0;entryDy=0;strokeColor=#0000FF;" edge="1" parent="1" target="B9OUSxAQZ2tbWcy4EvlK-41">
          <mxGeometry width="50" height="50" relative="1" as="geometry">
            <mxPoint x="960" y="520" as="sourcePoint" />
            <mxPoint x="540" y="386" as="targetPoint" />
          </mxGeometry>
        </mxCell>
      </root>
    </mxGraphModel>
  </diagram>
</mxfile>
